<svg>
	<symbol id="telegram" width="40" height="40" viewBox="0 0 40 40" fill="none" xmlns="http://www.w3.org/2000/svg">
		<path fill-rule="evenodd" clip-rule="evenodd" d="M16.6736 24.0686L16.6732 24.0683L16.6736 24.0678L16.6737 24.0677L16.6737 24.0678L25.9473 15.6991C26.3543 15.3379 25.8584 15.1617 25.3181 15.4894L13.8726 22.7102L8.92876 21.1671C7.86111 20.8402 7.85344 20.1066 9.16846 19.5791L28.4335 12.1506C29.3133 11.7512 30.1626 12.362 29.8267 13.7087L26.5459 29.1692C26.3168 30.2678 25.6529 30.5306 24.7332 30.0231L19.7355 26.3307L17.3333 28.6666C17.3257 28.6739 17.3182 28.6813 17.3107 28.6886C17.042 28.9501 16.8197 29.1666 16.3333 29.1666L16.6736 24.0686Z" fill="#1E2E36" />
	</symbol>
	<symbol id="faceboock" width="40" height="40" viewBox="0 0 40 40" fill="none" xmlns="http://www.w3.org/2000/svg">
		<path fill-rule="evenodd" clip-rule="evenodd" d="M22.0846 31.7596V20.8785H25.0883L25.4863 17.1288H22.0846L22.0897 15.2521C22.0897 14.2741 22.1827 13.7501 23.5873 13.7501H25.4651V10H22.461C18.8526 10 17.5826 11.819 17.5826 14.878V17.1293H15.3333V20.8789H17.5826V31.7596H22.0846Z" fill="#1E2E36" />
	</symbol>
	<symbol id="instagram" width="40" height="40" viewBox="0 0 40 40" fill="none" xmlns="http://www.w3.org/2000/svg">
		<path fill-rule="evenodd" clip-rule="evenodd" d="M15.6027 9.39776C16.7405 9.34598 17.1041 9.33331 20.001 9.33331H19.9977C22.8955 9.33331 23.2577 9.34598 24.3955 9.39776C25.5311 9.44976 26.3066 9.62954 26.9866 9.89332C27.6889 10.1655 28.2822 10.53 28.8755 11.1233C29.4689 11.7162 29.8333 12.3113 30.1067 13.0129C30.3689 13.6911 30.5489 14.4663 30.6022 15.6018C30.6533 16.7396 30.6667 17.1032 30.6667 20.0001C30.6667 22.897 30.6533 23.2597 30.6022 24.3975C30.5489 25.5326 30.3689 26.3079 30.1067 26.9864C29.8333 27.6877 29.4689 28.2828 28.8755 28.8757C28.2829 29.4691 27.6886 29.8344 26.9873 30.1069C26.3086 30.3706 25.5326 30.5504 24.3971 30.6024C23.2593 30.6542 22.8968 30.6669 19.9997 30.6669C17.103 30.6669 16.7396 30.6542 15.6019 30.6024C14.4665 30.5504 13.6912 30.3706 13.0125 30.1069C12.3114 29.8344 11.7163 29.4691 11.1236 28.8757C10.5305 28.2828 10.166 27.6877 9.89335 26.9862C9.62979 26.3079 9.45001 25.5328 9.39779 24.3972C9.34623 23.2595 9.33334 22.897 9.33334 20.0001C9.33334 17.1032 9.34668 16.7394 9.39757 15.6016C9.44868 14.4665 9.62868 13.6911 9.89313 13.0127C10.1665 12.3113 10.5309 11.7162 11.1243 11.1233C11.7171 10.5302 12.3123 10.1658 13.0138 9.89332C13.6921 9.62954 14.4672 9.44976 15.6027 9.39776ZM19.6455 11.2555C19.4298 11.2554 19.23 11.2553 19.0442 11.2556V11.2529C17.0561 11.2551 16.6748 11.2685 15.6908 11.3129C14.6508 11.3607 14.0861 11.534 13.7101 11.6807C13.2123 11.8745 12.8568 12.1056 12.4834 12.4789C12.1101 12.8523 11.8785 13.2078 11.6852 13.7056C11.5392 14.0816 11.3654 14.6461 11.3179 15.6861C11.2667 16.8105 11.2565 17.1465 11.2565 19.995C11.2565 22.8435 11.2667 23.1813 11.3179 24.3057C11.3652 25.3457 11.5392 25.9102 11.6852 26.2857C11.879 26.7837 12.1101 27.1384 12.4834 27.5117C12.8568 27.8851 13.2123 28.1162 13.7101 28.3095C14.0863 28.4555 14.6508 28.6293 15.6908 28.6773C16.8152 28.7284 17.1528 28.7395 20.0011 28.7395C22.8491 28.7395 23.1869 28.7284 24.3113 28.6773C25.3513 28.6298 25.9162 28.4564 26.2918 28.3098C26.7898 28.1164 27.1442 27.8853 27.5176 27.512C27.8909 27.1389 28.1225 26.7844 28.3158 26.2866C28.4618 25.9111 28.6356 25.3466 28.6831 24.3066C28.7343 23.1821 28.7454 22.8444 28.7454 19.9977C28.7454 17.151 28.7343 16.8132 28.6831 15.6887C28.6358 14.6487 28.4618 14.0843 28.3158 13.7087C28.122 13.2109 27.8909 12.8554 27.5176 12.482C27.1445 12.1087 26.7896 11.8776 26.2918 11.6842C25.9158 11.5382 25.3513 11.3645 24.3113 11.3169C23.1866 11.2658 22.8491 11.2556 20.0011 11.2556L19.6455 11.2555ZM14.5232 19.9999C14.5232 16.9748 16.9759 14.5221 20.001 14.5221C23.0261 14.5222 25.478 16.9749 25.478 19.9999C25.478 23.0251 23.0262 25.4767 20.001 25.4767C16.9759 25.4767 14.5232 23.0251 14.5232 19.9999ZM23.5566 20.0002C23.5566 18.0364 21.9646 16.4446 20.001 16.4446C18.0372 16.4446 16.4454 18.0364 16.4454 20.0002C16.4454 21.9638 18.0372 23.5558 20.001 23.5558C21.9646 23.5558 23.5566 21.9638 23.5566 20.0002ZM24.415 14.3064C24.415 13.5995 24.9883 13.0268 25.695 13.0268V13.0263C26.4017 13.0263 26.975 13.5997 26.975 14.3064C26.975 15.013 26.4017 15.5864 25.695 15.5864C24.9883 15.5864 24.415 15.013 24.415 14.3064Z" fill="#1E2E36" />
	</symbol>
	<symbol id="phone-mini" width="181" height="24" viewBox="0 0 181 24" fill="none" xmlns="http://www.w3.org/2000/svg">
		<path d="M17 2H7C5.89543 2 5 2.89543 5 4V20C5 21.1046 5.89543 22 7 22H17C18.1046 22 19 21.1046 19 20V4C19 2.89543 18.1046 2 17 2Z" stroke="#1E2E36" stroke-width="1.5" stroke-linecap="round" stroke-linejoin="round" />
		<path d="M12 18H12.01" stroke="#1E2E36" stroke-width="1.5" stroke-linecap="round" stroke-linejoin="round" />
		<path d="M34.022 19.466L32.582 20.582C31.706 19.598 31.01 18.392 30.494 16.964C29.99 15.524 29.738 14.078 29.738 12.626C29.738 11.174 29.99 9.734 30.494 8.306C31.01 6.866 31.706 5.654 32.582 4.67L34.022 5.75C33.398 6.89 32.936 7.994 32.636 9.062C32.348 10.13 32.204 11.318 32.204 12.626C32.204 13.934 32.348 15.122 32.636 16.19C32.936 17.258 33.398 18.35 34.022 19.466ZM42.7138 16.298C41.9458 16.91 41.0158 17.216 39.9238 17.216C38.8318 17.216 37.8958 16.91 37.1158 16.298C36.3478 15.674 35.7958 14.906 35.4598 13.994C35.1238 13.082 34.9558 12.086 34.9558 11.006C34.9558 9.926 35.1238 8.93 35.4598 8.018C35.7958 7.106 36.3478 6.344 37.1158 5.732C37.8958 5.12 38.8318 4.814 39.9238 4.814C41.0158 4.814 41.9458 5.12 42.7138 5.732C43.4818 6.344 44.0338 7.106 44.3698 8.018C44.7178 8.93 44.8918 9.926 44.8918 11.006C44.8918 12.086 44.7178 13.082 44.3698 13.994C44.0338 14.906 43.4818 15.674 42.7138 16.298ZM38.1238 13.868C38.5078 14.588 39.1078 14.948 39.9238 14.948C40.7398 14.948 41.3338 14.588 41.7058 13.868C42.0898 13.148 42.2818 12.194 42.2818 11.006C42.2818 9.818 42.0898 8.87 41.7058 8.162C41.3338 7.442 40.7398 7.082 39.9238 7.082C39.1078 7.082 38.5078 7.442 38.1238 8.162C37.7398 8.87 37.5478 9.818 37.5478 11.006C37.5478 12.194 37.7398 13.148 38.1238 13.868ZM50.2399 17.198C48.8119 17.198 47.6359 16.784 46.7119 15.956L47.8459 13.994C48.5059 14.618 49.3039 14.93 50.2399 14.93C51.1759 14.93 51.9079 14.6 52.4359 13.94C52.9759 13.268 53.2459 12.47 53.2459 11.546V11.276C52.9339 11.708 52.4959 12.074 51.9319 12.374C51.3679 12.674 50.7739 12.824 50.1499 12.824C49.0099 12.824 48.0379 12.482 47.2339 11.798C46.4419 11.102 46.0459 10.142 46.0459 8.918C46.0459 7.73 46.4719 6.746 47.3239 5.966C48.1879 5.186 49.2979 4.796 50.6539 4.796C51.8179 4.796 52.7959 5.084 53.5879 5.66C54.3919 6.236 54.9619 6.98 55.2979 7.892C55.6459 8.792 55.8199 9.83 55.8199 11.006C55.8199 12.854 55.3219 14.348 54.3259 15.488C53.3419 16.628 51.9799 17.198 50.2399 17.198ZM50.8699 10.628C51.8299 10.628 52.6159 10.256 53.2279 9.512C53.1679 8.84 52.9399 8.264 52.5439 7.784C52.1479 7.304 51.5599 7.064 50.7799 7.064C50.1319 7.064 49.6159 7.244 49.2319 7.604C48.8479 7.964 48.6559 8.372 48.6559 8.828C48.6559 9.416 48.8719 9.866 49.3039 10.178C49.7359 10.478 50.2579 10.628 50.8699 10.628ZM61.191 17.198C59.763 17.198 58.587 16.784 57.663 15.956L58.797 13.994C59.457 14.618 60.255 14.93 61.191 14.93C62.127 14.93 62.859 14.6 63.387 13.94C63.927 13.268 64.197 12.47 64.197 11.546V11.276C63.885 11.708 63.447 12.074 62.883 12.374C62.319 12.674 61.725 12.824 61.101 12.824C59.961 12.824 58.989 12.482 58.185 11.798C57.393 11.102 56.997 10.142 56.997 8.918C56.997 7.73 57.423 6.746 58.275 5.966C59.139 5.186 60.249 4.796 61.605 4.796C62.769 4.796 63.747 5.084 64.539 5.66C65.343 6.236 65.913 6.98 66.249 7.892C66.597 8.792 66.771 9.83 66.771 11.006C66.771 12.854 66.273 14.348 65.277 15.488C64.293 16.628 62.931 17.198 61.191 17.198ZM61.821 10.628C62.781 10.628 63.567 10.256 64.179 9.512C64.119 8.84 63.891 8.264 63.495 7.784C63.099 7.304 62.511 7.064 61.731 7.064C61.083 7.064 60.567 7.244 60.183 7.604C59.799 7.964 59.607 8.372 59.607 8.828C59.607 9.416 59.823 9.866 60.255 10.178C60.687 10.478 61.209 10.628 61.821 10.628ZM69.1542 20.582L67.7142 19.466C68.3502 18.362 68.8122 17.276 69.1002 16.208C69.4002 15.14 69.5502 13.946 69.5502 12.626C69.5502 11.306 69.4002 10.112 69.1002 9.044C68.8122 7.976 68.3502 6.878 67.7142 5.75L69.1542 4.67C70.0422 5.666 70.7442 6.878 71.2602 8.306C71.7762 9.734 72.0342 11.174 72.0342 12.626C72.0342 14.078 71.7702 15.524 71.2422 16.964C70.7262 18.392 70.0302 19.598 69.1542 20.582ZM83.5674 17H81.0114V8.288L79.0134 10.322L77.5554 8.792L81.3354 4.994H83.5674V17ZM90.9678 17H88.4118V8.288L86.4138 10.322L84.9558 8.792L88.7358 4.994H90.9678V17ZM98.3682 17H95.8122V8.288L93.8142 10.322L92.3562 8.792L96.1362 4.994H98.3682V17ZM114.046 17H105.01V15.002C107.578 13.094 109.276 11.738 110.104 10.934C110.944 10.118 111.364 9.356 111.364 8.648C111.364 8.156 111.172 7.772 110.788 7.496C110.404 7.22 109.948 7.082 109.42 7.082C108.16 7.082 107.086 7.544 106.198 8.468L104.74 6.776C105.304 6.128 105.994 5.642 106.81 5.318C107.638 4.982 108.49 4.814 109.366 4.814C110.686 4.814 111.778 5.162 112.642 5.858C113.518 6.554 113.956 7.484 113.956 8.648C113.956 9.632 113.566 10.598 112.786 11.546C112.018 12.482 110.806 13.55 109.15 14.75H114.046V17ZM124.839 17H115.803V15.002C118.371 13.094 120.069 11.738 120.897 10.934C121.737 10.118 122.157 9.356 122.157 8.648C122.157 8.156 121.965 7.772 121.581 7.496C121.197 7.22 120.741 7.082 120.213 7.082C118.953 7.082 117.879 7.544 116.991 8.468L115.533 6.776C116.097 6.128 116.787 5.642 117.603 5.318C118.431 4.982 119.283 4.814 120.159 4.814C121.479 4.814 122.571 5.162 123.435 5.858C124.311 6.554 124.749 7.484 124.749 8.648C124.749 9.632 124.359 10.598 123.579 11.546C122.811 12.482 121.599 13.55 119.943 14.75H124.839V17ZM135.449 17.216C134.393 17.216 133.457 17.042 132.641 16.694C131.825 16.334 131.183 15.866 130.715 15.29L132.047 13.58C132.455 14 132.959 14.336 133.559 14.588C134.159 14.828 134.759 14.948 135.359 14.948C136.079 14.948 136.637 14.81 137.033 14.534C137.429 14.246 137.627 13.874 137.627 13.418C137.627 12.938 137.435 12.59 137.051 12.374C136.667 12.146 136.055 12.032 135.215 12.032C134.459 12.032 133.961 12.044 133.721 12.068V9.764C133.865 9.776 134.363 9.782 135.215 9.782C136.691 9.782 137.429 9.356 137.429 8.504C137.429 8.048 137.219 7.7 136.799 7.46C136.391 7.208 135.857 7.082 135.197 7.082C134.033 7.082 133.019 7.496 132.155 8.324L130.877 6.722C132.005 5.45 133.535 4.814 135.467 4.814C136.871 4.814 137.975 5.108 138.779 5.696C139.595 6.284 140.003 7.076 140.003 8.072C140.003 8.792 139.745 9.398 139.229 9.89C138.713 10.37 138.095 10.676 137.375 10.808C138.083 10.88 138.725 11.174 139.301 11.69C139.889 12.194 140.183 12.86 140.183 13.688C140.183 14.732 139.751 15.584 138.887 16.244C138.023 16.892 136.877 17.216 135.449 17.216ZM146.014 17.216C144.958 17.216 144.022 17.042 143.206 16.694C142.39 16.334 141.748 15.866 141.28 15.29L142.612 13.58C143.02 14 143.524 14.336 144.124 14.588C144.724 14.828 145.324 14.948 145.924 14.948C146.644 14.948 147.202 14.81 147.598 14.534C147.994 14.246 148.192 13.874 148.192 13.418C148.192 12.938 148 12.59 147.616 12.374C147.232 12.146 146.62 12.032 145.78 12.032C145.024 12.032 144.526 12.044 144.286 12.068V9.764C144.43 9.776 144.928 9.782 145.78 9.782C147.256 9.782 147.994 9.356 147.994 8.504C147.994 8.048 147.784 7.7 147.364 7.46C146.956 7.208 146.422 7.082 145.762 7.082C144.598 7.082 143.584 7.496 142.72 8.324L141.442 6.722C142.57 5.45 144.1 4.814 146.032 4.814C147.436 4.814 148.54 5.108 149.344 5.696C150.16 6.284 150.568 7.076 150.568 8.072C150.568 8.792 150.31 9.398 149.794 9.89C149.278 10.37 148.66 10.676 147.94 10.808C148.648 10.88 149.29 11.174 149.866 11.69C150.454 12.194 150.748 12.86 150.748 13.688C150.748 14.732 150.316 15.584 149.452 16.244C148.588 16.892 147.442 17.216 146.014 17.216Z" fill="#1E2E36" />
		<path fill-rule="evenodd" clip-rule="evenodd" d="M175.53 8.46967C175.823 8.76256 175.823 9.23744 175.53 9.53033L169.53 15.5303C169.237 15.8232 168.763 15.8232 168.47 15.5303L162.47 9.53033C162.177 9.23744 162.177 8.76256 162.47 8.46967C162.763 8.17678 163.237 8.17678 163.53 8.46967L169 13.9393L174.47 8.46967C174.763 8.17678 175.237 8.17678 175.53 8.46967Z" fill="#1E2E36" />
	</symbol>
	<symbol id="cart" width="30" height="31" viewBox="0 0 30 31" fill="none" xmlns="http://www.w3.org/2000/svg">
		<g clip-path="url(#clip0_628_441)">
			<path fill-rule="evenodd" clip-rule="evenodd" d="M11.25 26.4375C11.0774 26.4375 10.9375 26.5774 10.9375 26.75C10.9375 26.9226 11.0774 27.0625 11.25 27.0625C11.4226 27.0625 11.5625 26.9226 11.5625 26.75C11.5625 26.5774 11.4226 26.4375 11.25 26.4375ZM9.0625 26.75C9.0625 25.5419 10.0419 24.5625 11.25 24.5625C12.4581 24.5625 13.4375 25.5419 13.4375 26.75C13.4375 27.9581 12.4581 28.9375 11.25 28.9375C10.0419 28.9375 9.0625 27.9581 9.0625 26.75Z" fill="#1E2E36" />
			<path fill-rule="evenodd" clip-rule="evenodd" d="M25 26.4375C24.8274 26.4375 24.6875 26.5774 24.6875 26.75C24.6875 26.9226 24.8274 27.0625 25 27.0625C25.1726 27.0625 25.3125 26.9226 25.3125 26.75C25.3125 26.5774 25.1726 26.4375 25 26.4375ZM22.8125 26.75C22.8125 25.5419 23.7919 24.5625 25 24.5625C26.2081 24.5625 27.1875 25.5419 27.1875 26.75C27.1875 27.9581 26.2081 28.9375 25 28.9375C23.7919 28.9375 22.8125 27.9581 22.8125 26.75Z" fill="#1E2E36" />
			<path fill-rule="evenodd" clip-rule="evenodd" d="M0.3125 1.75C0.3125 1.23223 0.732233 0.8125 1.25 0.8125H6.25C6.69684 0.8125 7.08158 1.12786 7.16926 1.56601L8.26939 7.0625H28.75C29.0294 7.0625 29.2943 7.18713 29.4724 7.4024C29.6505 7.61768 29.7233 7.90116 29.6709 8.17563L27.6696 18.6701C27.5124 19.4615 27.0819 20.1723 26.4535 20.6781C25.8275 21.182 25.0449 21.4506 24.2418 21.4375H12.1083C11.3051 21.4506 10.5225 21.182 9.89656 20.6781C9.26841 20.1725 8.83804 19.4621 8.68069 18.6713L6.59069 8.2291C6.5834 8.20006 6.57746 8.17049 6.57295 8.14044L5.48155 2.6875H1.25C0.732233 2.6875 0.3125 2.26776 0.3125 1.75ZM8.64466 8.9375L10.5195 18.3049C10.591 18.6645 10.7867 18.9876 11.0723 19.2176C11.358 19.4475 11.7154 19.5698 12.082 19.5626L12.1 19.5625H24.25L24.268 19.5626C24.6346 19.5698 24.992 19.4475 25.2778 19.2176C25.5625 18.9883 25.7579 18.6664 25.8299 18.3079L25.8305 18.3049L27.6169 8.9375H8.64466Z" fill="#1E2E36" />
		</g>
		<defs>
			<clipPath id="clip0_628_441">
				<rect width="30" height="30" fill="white" transform="translate(0 0.5)" />
			</clipPath>
		</defs>
	</symbol>
	<symbol id="arrow-bottom" width="14" height="8" viewBox="0 0 14 8" fill="none" xmlns="http://www.w3.org/2000/svg">
		<path fill-rule="evenodd" clip-rule="evenodd" d="M13.5303 0.46967C13.8232 0.762563 13.8232 1.23744 13.5303 1.53033L7.53033 7.53033C7.23744 7.82322 6.76256 7.82322 6.46967 7.53033L0.46967 1.53033C0.176777 1.23744 0.176777 0.762563 0.46967 0.469669C0.762563 0.176776 1.23744 0.176776 1.53033 0.469669L7 5.93934L12.4697 0.46967C12.7626 0.176777 13.2374 0.176777 13.5303 0.46967Z" fill="#1E2E36" />
	</symbol>
	<symbol id="map" width="24" height="24" viewBox="0 0 24 24" fill="none" xmlns="http://www.w3.org/2000/svg">
		<path fill-rule="evenodd" clip-rule="evenodd" d="M12 1.75C9.81196 1.75 7.71354 2.61919 6.16637 4.16637C4.61919 5.71354 3.75 7.81196 3.75 10C3.75 13.1985 5.8243 16.2657 8.04446 18.6092C9.13921 19.7648 10.2365 20.7099 11.0609 21.3664C11.4432 21.6708 11.7656 21.9122 12 22.0825C12.2344 21.9122 12.5568 21.6708 12.9391 21.3664C13.7635 20.7099 14.8608 19.7648 15.9555 18.6092C18.1757 16.2657 20.25 13.1985 20.25 10C20.25 7.81196 19.3808 5.71354 17.8336 4.16637C16.2865 2.61919 14.188 1.75 12 1.75ZM12 23C11.584 23.624 11.5835 23.6238 11.5835 23.6238L11.581 23.6221L11.5748 23.6179L11.5528 23.603C11.5339 23.5902 11.5068 23.5716 11.4719 23.5475C11.4021 23.4992 11.3014 23.4284 11.1742 23.3365C10.9197 23.1528 10.5587 22.8839 10.1266 22.5398C9.2635 21.8526 8.11079 20.8602 6.95554 19.6408C4.6757 17.2343 2.25 13.8015 2.25 10C2.25 7.41414 3.27723 4.93419 5.10571 3.10571C6.93419 1.27723 9.41414 0.25 12 0.25C14.5859 0.25 17.0658 1.27723 18.8943 3.10571C20.7228 4.93419 21.75 7.41414 21.75 10C21.75 13.8015 19.3243 17.2343 17.0445 19.6408C15.8892 20.8602 14.7365 21.8526 13.8734 22.5398C13.4413 22.8839 13.0803 23.1528 12.8258 23.3365C12.6986 23.4284 12.5979 23.4992 12.5281 23.5475C12.4932 23.5716 12.4661 23.5902 12.4472 23.603L12.4252 23.6179L12.419 23.6221L12.4171 23.6233C12.4171 23.6233 12.416 23.624 12 23ZM12 23L12.416 23.624C12.1641 23.792 11.8355 23.7917 11.5835 23.6238L12 23Z" fill="white" />
		<path fill-rule="evenodd" clip-rule="evenodd" d="M12 7.75C10.7574 7.75 9.75 8.75736 9.75 10C9.75 11.2426 10.7574 12.25 12 12.25C13.2426 12.25 14.25 11.2426 14.25 10C14.25 8.75736 13.2426 7.75 12 7.75ZM8.25 10C8.25 7.92893 9.92893 6.25 12 6.25C14.0711 6.25 15.75 7.92893 15.75 10C15.75 12.0711 14.0711 13.75 12 13.75C9.92893 13.75 8.25 12.0711 8.25 10Z" fill="white" />
	</symbol>
	<symbol id="calendar" width="24" height="24" viewBox="0 0 24 24" fill="none" xmlns="http://www.w3.org/2000/svg">
		<path fill-rule="evenodd" clip-rule="evenodd" d="M5 4.75C4.30964 4.75 3.75 5.30964 3.75 6V20C3.75 20.6904 4.30964 21.25 5 21.25H19C19.6904 21.25 20.25 20.6904 20.25 20V6C20.25 5.30964 19.6904 4.75 19 4.75H5ZM2.25 6C2.25 4.48122 3.48122 3.25 5 3.25H19C20.5188 3.25 21.75 4.48122 21.75 6V20C21.75 21.5188 20.5188 22.75 19 22.75H5C3.48122 22.75 2.25 21.5188 2.25 20V6Z" fill="white" />
		<path fill-rule="evenodd" clip-rule="evenodd" d="M16 1.25C16.4142 1.25 16.75 1.58579 16.75 2V6C16.75 6.41421 16.4142 6.75 16 6.75C15.5858 6.75 15.25 6.41421 15.25 6V2C15.25 1.58579 15.5858 1.25 16 1.25Z" fill="white" />
		<path fill-rule="evenodd" clip-rule="evenodd" d="M8 1.25C8.41421 1.25 8.75 1.58579 8.75 2V6C8.75 6.41421 8.41421 6.75 8 6.75C7.58579 6.75 7.25 6.41421 7.25 6V2C7.25 1.58579 7.58579 1.25 8 1.25Z" fill="white" />
		<path fill-rule="evenodd" clip-rule="evenodd" d="M2.25 10C2.25 9.58579 2.58579 9.25 3 9.25H21C21.4142 9.25 21.75 9.58579 21.75 10C21.75 10.4142 21.4142 10.75 21 10.75H3C2.58579 10.75 2.25 10.4142 2.25 10Z" fill="white" />
	</symbol>
	<symbol id="arrow-top" width="16" height="18" viewBox="0 0 16 18" fill="none" xmlns="http://www.w3.org/2000/svg">
		<path d="M8.70711 0.565443C8.31658 0.174919 7.68342 0.174919 7.29289 0.565443L0.928933 6.9294C0.538408 7.31993 0.538408 7.95309 0.928933 8.34362C1.31946 8.73414 1.95262 8.73414 2.34315 8.34362L8 2.68676L13.6569 8.34362C14.0474 8.73414 14.6805 8.73414 15.0711 8.34362C15.4616 7.95309 15.4616 7.31993 15.0711 6.9294L8.70711 0.565443ZM9 17.1816L9 1.27255L7 1.27255L7 17.1816L9 17.1816Z" fill="white" />
	</symbol>
	<symbol id="logo-mini" width="20" height="21" viewBox="0 0 20 21" fill="none" xmlns="http://www.w3.org/2000/svg">
		<path d="M11.1072 0C6.02956 1.72803 1.74643 5.25083 0 10.5C1.72649 15.6893 5.96941 19.2515 11.1072 21C15.6759 17.4456 18.1672 14.591 20 10.5C17.3693 8.71775 16.2642 7.80021 14.1314 5.04227C11.2738 6.38147 8.78639 7.94215 6.58296 10.443C7.37367 11.5796 8.68652 12.6405 9.74796 13.5121C11.2949 12.365 12.4746 11.2473 13.2387 10.2883C13.7179 10.8791 14.2581 11.2722 14.7727 11.6008C13.4435 13.8825 11.9519 15.1353 10.1099 16.3319C7.34317 14.8539 5.11921 12.2957 4.03831 10.1325C6.06428 6.76193 9.24194 4.48607 12.8526 3.21774C12.2677 2.1839 11.5009 1.22111 11.1072 0Z" fill="#FFD001" />
	</symbol>
	<symbol id="logo" width="360" height="75" viewBox="0 0 360 75" fill="none" xmlns="http://www.w3.org/2000/svg">
		<path d="M31.8328 29.4883H88.3833V21.507H31.8328V8.04236H88.3833V0.0610352H27.478C25.454 0.0610352 23.7979 1.70604 23.7979 3.7166V43.0139H31.8328V29.4883Z" fill="#44C697" />
		<path d="M97.5835 0H93.1674V42.9529H101.202V3.65556C101.264 1.645 99.6075 0 97.5835 0Z" fill="white" />
		<path d="M107.581 27.9648V49.289H17.4191V27.9648H4.60014C2.02409 27.9648 4.57764e-05 30.0363 4.57764e-05 32.5343V44.6586C4.57764e-05 47.2175 2.08542 49.2281 4.60014 49.2281H7.5442L8.83223 64.2159V74.9998H12.1443L16.0084 64.2159H108.992L112.856 74.9998H116.168V64.2159L117.456 49.2281H120.4C122.976 49.2281 125 47.1566 125 44.6586V32.5343C125 29.9754 122.915 27.9648 120.4 27.9648H107.581Z" fill="white" />
		<path d="M147.488 49H142.376V24.988H159.368V29.488H147.488V34.564H159.116V39.064H147.488V49Z" fill="#44C697" />
		<path d="M179.142 49H174.57V46.804C173.01 48.556 170.97 49.432 168.45 49.432C166.578 49.432 165.174 48.952 164.238 47.992C163.302 47.032 162.834 45.688 162.834 43.96V31.612H167.406V42.16C167.406 44.296 168.474 45.364 170.61 45.364C172.218 45.364 173.538 44.704 174.57 43.384V31.612H179.142V49ZM188.254 49H183.682V31.612H188.254V33.988C188.902 33.172 189.73 32.5 190.738 31.972C191.746 31.444 192.766 31.18 193.798 31.18V35.644C193.486 35.572 193.066 35.536 192.538 35.536C191.77 35.536 190.954 35.728 190.09 36.112C189.226 36.496 188.614 36.964 188.254 37.516V49ZM212.963 49H208.391V38.488C208.391 36.328 207.323 35.248 205.187 35.248C203.531 35.248 202.211 35.932 201.227 37.3V49H196.655V31.612H201.227V33.88C202.739 32.08 204.767 31.18 207.311 31.18C209.183 31.18 210.587 31.672 211.523 32.656C212.483 33.64 212.963 34.996 212.963 36.724V49ZM219.77 29.74C219.026 29.74 218.378 29.476 217.826 28.948C217.298 28.396 217.034 27.748 217.034 27.004C217.034 26.26 217.298 25.624 217.826 25.096C218.378 24.568 219.026 24.304 219.77 24.304C220.538 24.304 221.186 24.568 221.714 25.096C222.242 25.624 222.506 26.26 222.506 27.004C222.506 27.748 222.242 28.396 221.714 28.948C221.186 29.476 220.538 29.74 219.77 29.74ZM222.074 49H217.502V31.612H222.074V49ZM232.44 49.432C230.832 49.432 229.608 49.024 228.768 48.208C227.928 47.392 227.508 46.216 227.508 44.68V35.608H224.628V31.612H227.508V26.86H232.116V31.612H235.644V35.608H232.116V43.456C232.116 44.008 232.26 44.464 232.548 44.824C232.836 45.184 233.22 45.364 233.7 45.364C234.42 45.364 234.948 45.196 235.284 44.86L236.256 48.316C235.416 49.06 234.144 49.432 232.44 49.432ZM255.08 49H250.508V46.804C248.948 48.556 246.908 49.432 244.388 49.432C242.516 49.432 241.112 48.952 240.176 47.992C239.24 47.032 238.772 45.688 238.772 43.96V31.612H243.344V42.16C243.344 44.296 244.412 45.364 246.548 45.364C248.156 45.364 249.476 44.704 250.508 43.384V31.612H255.08V49ZM264.192 49H259.62V31.612H264.192V33.988C264.84 33.172 265.668 32.5 266.676 31.972C267.684 31.444 268.704 31.18 269.736 31.18V35.644C269.424 35.572 269.004 35.536 268.476 35.536C267.708 35.536 266.892 35.728 266.028 36.112C265.164 36.496 264.552 36.964 264.192 37.516V49ZM280.764 49.432C278.076 49.432 275.856 48.592 274.104 46.912C272.352 45.232 271.476 43.024 271.476 40.288C271.476 37.72 272.316 35.56 273.996 33.808C275.7 32.056 277.86 31.18 280.476 31.18C283.068 31.18 285.168 32.068 286.776 33.844C288.384 35.596 289.188 37.9 289.188 40.756V41.764H276.264C276.408 42.916 276.924 43.876 277.812 44.644C278.7 45.412 279.852 45.796 281.268 45.796C282.036 45.796 282.864 45.64 283.752 45.328C284.664 45.016 285.384 44.596 285.912 44.068L287.928 47.02C286.176 48.628 283.788 49.432 280.764 49.432ZM284.76 38.668C284.688 37.684 284.292 36.796 283.572 36.004C282.876 35.212 281.844 34.816 280.476 34.816C279.18 34.816 278.172 35.212 277.452 36.004C276.732 36.772 276.312 37.66 276.192 38.668H284.76ZM296.742 48.532C296.166 49.108 295.482 49.396 294.69 49.396C293.898 49.396 293.214 49.108 292.638 48.532C292.062 47.956 291.774 47.272 291.774 46.48C291.774 45.688 292.062 45.004 292.638 44.428C293.214 43.852 293.898 43.564 294.69 43.564C295.482 43.564 296.166 43.852 296.742 44.428C297.318 45.004 297.606 45.688 297.606 46.48C297.606 47.272 297.318 47.956 296.742 48.532ZM306.409 49.432C304.801 49.432 303.577 49.024 302.737 48.208C301.897 47.392 301.477 46.216 301.477 44.68V35.608H298.597V31.612H301.477V26.86H306.085V31.612H309.613V35.608H306.085V43.456C306.085 44.008 306.229 44.464 306.517 44.824C306.805 45.184 307.189 45.364 307.669 45.364C308.389 45.364 308.917 45.196 309.253 44.86L310.225 48.316C309.385 49.06 308.113 49.432 306.409 49.432ZM320.913 49.432C318.225 49.432 316.005 48.592 314.253 46.912C312.501 45.232 311.625 43.024 311.625 40.288C311.625 37.72 312.465 35.56 314.145 33.808C315.849 32.056 318.009 31.18 320.625 31.18C323.217 31.18 325.317 32.068 326.925 33.844C328.533 35.596 329.337 37.9 329.337 40.756V41.764H316.413C316.557 42.916 317.073 43.876 317.961 44.644C318.849 45.412 320.001 45.796 321.417 45.796C322.185 45.796 323.013 45.64 323.901 45.328C324.813 45.016 325.533 44.596 326.061 44.068L328.077 47.02C326.325 48.628 323.937 49.432 320.913 49.432ZM324.909 38.668C324.837 37.684 324.441 36.796 323.721 36.004C323.025 35.212 321.993 34.816 320.625 34.816C319.329 34.816 318.321 35.212 317.601 36.004C316.881 36.772 316.461 37.66 316.341 38.668H324.909ZM338.903 49.432C337.391 49.432 335.939 49.192 334.547 48.712C333.179 48.232 332.039 47.572 331.127 46.732L333.107 43.528C333.779 44.152 334.691 44.704 335.843 45.184C336.995 45.664 338.087 45.904 339.119 45.904C340.079 45.904 340.799 45.736 341.279 45.4C341.783 45.064 342.035 44.608 342.035 44.032C342.035 43.6 341.771 43.252 341.243 42.988C340.739 42.7 340.103 42.496 339.335 42.376C338.591 42.256 337.763 42.076 336.851 41.836C335.963 41.596 335.135 41.308 334.367 40.972C333.623 40.636 332.987 40.108 332.459 39.388C331.955 38.644 331.703 37.732 331.703 36.652C331.703 35.116 332.339 33.82 333.611 32.764C334.883 31.708 336.623 31.18 338.831 31.18C341.519 31.18 343.859 31.972 345.851 33.556L344.015 36.688C343.463 36.112 342.719 35.632 341.783 35.248C340.871 34.864 339.899 34.672 338.867 34.672C338.051 34.672 337.391 34.84 336.887 35.176C336.383 35.488 336.131 35.896 336.131 36.4C336.131 36.784 336.383 37.108 336.887 37.372C337.391 37.612 338.027 37.792 338.795 37.912C339.563 38.032 340.391 38.224 341.279 38.488C342.167 38.728 342.995 39.028 343.763 39.388C344.531 39.724 345.167 40.276 345.671 41.044C346.175 41.812 346.427 42.748 346.427 43.852C346.427 45.484 345.755 46.828 344.411 47.884C343.091 48.916 341.255 49.432 338.903 49.432ZM355.627 49.432C354.019 49.432 352.795 49.024 351.955 48.208C351.115 47.392 350.695 46.216 350.695 44.68V35.608H347.815V31.612H350.695V26.86H355.303V31.612H358.831V35.608H355.303V43.456C355.303 44.008 355.447 44.464 355.735 44.824C356.023 45.184 356.407 45.364 356.887 45.364C357.607 45.364 358.135 45.196 358.471 44.86L359.443 48.316C358.603 49.06 357.331 49.432 355.627 49.432Z" fill="white" />
	</symbol>
	<symbol id="logo-black" width="360" height="75" viewBox="0 0 360 75" fill="none" xmlns="http://www.w3.org/2000/svg">
		<path d="M31.8328 29.4882H88.3833V21.5069H31.8328V8.04223H88.3833V0.0609131H27.478C25.4539 0.0609131 23.7979 1.70592 23.7979 3.71648V43.0138H31.8328V29.4882Z" fill="#44C697" />
		<path d="M97.5835 0H93.1674V42.9529H101.202V3.65556C101.264 1.645 99.6075 0 97.5835 0Z" fill="#1E2E36" />
		<path d="M107.581 27.9651V49.2892H17.4191V27.9651H4.60016C2.0241 27.9651 6.10352e-05 30.0366 6.10352e-05 32.5345V44.6588C6.10352e-05 47.2177 2.08544 49.2283 4.60016 49.2283H7.54421L8.83225 64.2161V75H12.1443L16.0084 64.2161H108.992L112.856 75H116.168V64.2161L117.456 49.2283H120.4C122.976 49.2283 125 47.1568 125 44.6588V32.5345C125 29.9756 122.915 27.9651 120.4 27.9651H107.581Z" fill="#1E2E36" />
		<path d="M147.488 49H142.376V24.988H159.368V29.488H147.488V34.564H159.116V39.064H147.488V49Z" fill="#44C697" />
		<path d="M179.142 49H174.57V46.804C173.01 48.556 170.97 49.432 168.45 49.432C166.578 49.432 165.174 48.952 164.238 47.992C163.302 47.032 162.834 45.688 162.834 43.96V31.612H167.406V42.16C167.406 44.296 168.474 45.364 170.61 45.364C172.218 45.364 173.538 44.704 174.57 43.384V31.612H179.142V49ZM188.254 49H183.682V31.612H188.254V33.988C188.902 33.172 189.73 32.5 190.738 31.972C191.746 31.444 192.766 31.18 193.798 31.18V35.644C193.486 35.572 193.066 35.536 192.538 35.536C191.77 35.536 190.954 35.728 190.09 36.112C189.226 36.496 188.614 36.964 188.254 37.516V49ZM212.963 49H208.391V38.488C208.391 36.328 207.323 35.248 205.187 35.248C203.531 35.248 202.211 35.932 201.227 37.3V49H196.655V31.612H201.227V33.88C202.739 32.08 204.767 31.18 207.311 31.18C209.183 31.18 210.587 31.672 211.523 32.656C212.483 33.64 212.963 34.996 212.963 36.724V49ZM219.77 29.74C219.026 29.74 218.378 29.476 217.826 28.948C217.298 28.396 217.034 27.748 217.034 27.004C217.034 26.26 217.298 25.624 217.826 25.096C218.378 24.568 219.026 24.304 219.77 24.304C220.538 24.304 221.186 24.568 221.714 25.096C222.242 25.624 222.506 26.26 222.506 27.004C222.506 27.748 222.242 28.396 221.714 28.948C221.186 29.476 220.538 29.74 219.77 29.74ZM222.074 49H217.502V31.612H222.074V49ZM232.44 49.432C230.832 49.432 229.608 49.024 228.768 48.208C227.928 47.392 227.508 46.216 227.508 44.68V35.608H224.628V31.612H227.508V26.86H232.116V31.612H235.644V35.608H232.116V43.456C232.116 44.008 232.26 44.464 232.548 44.824C232.836 45.184 233.22 45.364 233.7 45.364C234.42 45.364 234.948 45.196 235.284 44.86L236.256 48.316C235.416 49.06 234.144 49.432 232.44 49.432ZM255.08 49H250.508V46.804C248.948 48.556 246.908 49.432 244.388 49.432C242.516 49.432 241.112 48.952 240.176 47.992C239.24 47.032 238.772 45.688 238.772 43.96V31.612H243.344V42.16C243.344 44.296 244.412 45.364 246.548 45.364C248.156 45.364 249.476 44.704 250.508 43.384V31.612H255.08V49ZM264.192 49H259.62V31.612H264.192V33.988C264.84 33.172 265.668 32.5 266.676 31.972C267.684 31.444 268.704 31.18 269.736 31.18V35.644C269.424 35.572 269.004 35.536 268.476 35.536C267.708 35.536 266.892 35.728 266.028 36.112C265.164 36.496 264.552 36.964 264.192 37.516V49ZM280.764 49.432C278.076 49.432 275.856 48.592 274.104 46.912C272.352 45.232 271.476 43.024 271.476 40.288C271.476 37.72 272.316 35.56 273.996 33.808C275.7 32.056 277.86 31.18 280.476 31.18C283.068 31.18 285.168 32.068 286.776 33.844C288.384 35.596 289.188 37.9 289.188 40.756V41.764H276.264C276.408 42.916 276.924 43.876 277.812 44.644C278.7 45.412 279.852 45.796 281.268 45.796C282.036 45.796 282.864 45.64 283.752 45.328C284.664 45.016 285.384 44.596 285.912 44.068L287.928 47.02C286.176 48.628 283.788 49.432 280.764 49.432ZM284.76 38.668C284.688 37.684 284.292 36.796 283.572 36.004C282.876 35.212 281.844 34.816 280.476 34.816C279.18 34.816 278.172 35.212 277.452 36.004C276.732 36.772 276.312 37.66 276.192 38.668H284.76ZM296.742 48.532C296.166 49.108 295.482 49.396 294.69 49.396C293.898 49.396 293.214 49.108 292.638 48.532C292.062 47.956 291.774 47.272 291.774 46.48C291.774 45.688 292.062 45.004 292.638 44.428C293.214 43.852 293.898 43.564 294.69 43.564C295.482 43.564 296.166 43.852 296.742 44.428C297.318 45.004 297.606 45.688 297.606 46.48C297.606 47.272 297.318 47.956 296.742 48.532ZM306.409 49.432C304.801 49.432 303.577 49.024 302.737 48.208C301.897 47.392 301.477 46.216 301.477 44.68V35.608H298.597V31.612H301.477V26.86H306.085V31.612H309.613V35.608H306.085V43.456C306.085 44.008 306.229 44.464 306.517 44.824C306.805 45.184 307.189 45.364 307.669 45.364C308.389 45.364 308.917 45.196 309.253 44.86L310.225 48.316C309.385 49.06 308.113 49.432 306.409 49.432ZM320.913 49.432C318.225 49.432 316.005 48.592 314.253 46.912C312.501 45.232 311.625 43.024 311.625 40.288C311.625 37.72 312.465 35.56 314.145 33.808C315.849 32.056 318.009 31.18 320.625 31.18C323.217 31.18 325.317 32.068 326.925 33.844C328.533 35.596 329.337 37.9 329.337 40.756V41.764H316.413C316.557 42.916 317.073 43.876 317.961 44.644C318.849 45.412 320.001 45.796 321.417 45.796C322.185 45.796 323.013 45.64 323.901 45.328C324.813 45.016 325.533 44.596 326.061 44.068L328.077 47.02C326.325 48.628 323.937 49.432 320.913 49.432ZM324.909 38.668C324.837 37.684 324.441 36.796 323.721 36.004C323.025 35.212 321.993 34.816 320.625 34.816C319.329 34.816 318.321 35.212 317.601 36.004C316.881 36.772 316.461 37.66 316.341 38.668H324.909ZM338.903 49.432C337.391 49.432 335.939 49.192 334.547 48.712C333.179 48.232 332.039 47.572 331.127 46.732L333.107 43.528C333.779 44.152 334.691 44.704 335.843 45.184C336.995 45.664 338.087 45.904 339.119 45.904C340.079 45.904 340.799 45.736 341.279 45.4C341.783 45.064 342.035 44.608 342.035 44.032C342.035 43.6 341.771 43.252 341.243 42.988C340.739 42.7 340.103 42.496 339.335 42.376C338.591 42.256 337.763 42.076 336.851 41.836C335.963 41.596 335.135 41.308 334.367 40.972C333.623 40.636 332.987 40.108 332.459 39.388C331.955 38.644 331.703 37.732 331.703 36.652C331.703 35.116 332.339 33.82 333.611 32.764C334.883 31.708 336.623 31.18 338.831 31.18C341.519 31.18 343.859 31.972 345.851 33.556L344.015 36.688C343.463 36.112 342.719 35.632 341.783 35.248C340.871 34.864 339.899 34.672 338.867 34.672C338.051 34.672 337.391 34.84 336.887 35.176C336.383 35.488 336.131 35.896 336.131 36.4C336.131 36.784 336.383 37.108 336.887 37.372C337.391 37.612 338.027 37.792 338.795 37.912C339.563 38.032 340.391 38.224 341.279 38.488C342.167 38.728 342.995 39.028 343.763 39.388C344.531 39.724 345.167 40.276 345.671 41.044C346.175 41.812 346.427 42.748 346.427 43.852C346.427 45.484 345.755 46.828 344.411 47.884C343.091 48.916 341.255 49.432 338.903 49.432ZM355.627 49.432C354.019 49.432 352.795 49.024 351.955 48.208C351.115 47.392 350.695 46.216 350.695 44.68V35.608H347.815V31.612H350.695V26.86H355.303V31.612H358.831V35.608H355.303V43.456C355.303 44.008 355.447 44.464 355.735 44.824C356.023 45.184 356.407 45.364 356.887 45.364C357.607 45.364 358.135 45.196 358.471 44.86L359.443 48.316C358.603 49.06 357.331 49.432 355.627 49.432Z" fill="#1E2E36" />
	</symbol>
	<symbol id="divan" width="100" height="100" viewBox="0 0 100 100" fill="none" xmlns="http://www.w3.org/2000/svg">
		<g clip-path="url(#clip0_628_603)">
			<path d="M46.6655 87.1791H16.7647C14.2771 87.1763 12.261 85.1604 12.2583 82.6727V71.057C12.2612 68.5693 14.2771 66.5532 16.7647 66.5505H46.6655C49.1531 66.5534 51.1692 68.5693 51.1719 71.057V82.6727C51.169 85.1604 49.1531 87.1764 46.6655 87.1791ZM16.7647 68.8941C15.5708 68.8955 14.6032 69.863 14.6021 71.0568V82.6725C14.6034 83.8665 15.571 84.834 16.7647 84.8352H46.6655C47.8594 84.8338 48.8268 83.8663 48.8281 82.6725V71.0568C48.8268 69.8629 47.8592 68.8955 46.6655 68.8941H16.7647Z" fill="#1E2E36" />
			<path d="M10.0955 87.1791H4.50643C2.01875 87.1764 0.00287163 85.1603 0 82.6726V60.4356C0.00287163 57.948 2.01875 55.9319 4.50643 55.9292H10.0953C12.583 55.9321 14.599 57.948 14.6017 60.4356V82.6726C14.599 85.1603 12.5831 87.1764 10.0955 87.1791ZM4.50643 58.273C3.31251 58.2743 2.34511 59.2417 2.34375 60.4356V82.6726C2.34511 83.8666 3.31267 84.834 4.50643 84.8353H10.0953C11.2892 84.834 12.2566 83.8664 12.258 82.6726V60.4356C12.2566 59.2417 11.2892 58.2741 10.0953 58.273H4.50643Z" fill="#1E2E36" />
			<path d="M86.5699 78.0366H13.4301C12.783 78.0366 12.2583 77.512 12.2583 76.8648C12.2583 76.2177 12.783 75.6929 13.4301 75.6929H86.5701C87.2172 75.6929 87.7419 76.2175 87.7419 76.8648C87.7419 77.5121 87.2172 78.0366 86.5699 78.0366Z" fill="#1E2E36" />
			<path d="M46.6655 68.894H16.7647C14.2771 68.8911 12.261 66.8753 12.2583 64.3876V46.5406C12.2612 44.0529 14.2771 42.0369 16.7647 42.0342H46.6655C49.1531 42.0371 51.1692 44.0529 51.1719 46.5406V64.3876C51.169 66.8753 49.1531 68.8913 46.6655 68.894ZM16.7647 44.3778C15.5708 44.3791 14.6032 45.3465 14.6021 46.5404V64.3874C14.6034 65.5813 15.571 66.5489 16.7647 66.5501H46.6655C47.8594 66.5487 48.8268 65.5812 48.8281 64.3874V46.5406C48.8268 45.3467 47.8592 44.3791 46.6655 44.3779L16.7647 44.3778Z" fill="#1E2E36" />
			<path d="M83.2353 68.894H53.3345C50.8469 68.8911 48.8308 66.8753 48.8281 64.3876V46.5406C48.831 44.0529 50.8469 42.0369 53.3345 42.0342H83.2353C85.723 42.0371 87.739 44.0529 87.7417 46.5406V64.3876C87.739 66.8753 85.7231 68.8913 83.2353 68.894ZM53.3345 44.3778C52.1406 44.3791 51.1731 45.3467 51.1719 46.5404V64.3874C51.1732 65.5813 52.1408 66.5487 53.3345 66.5501H83.2353C84.4292 66.5487 85.3968 65.5812 85.398 64.3874V46.5406C85.3966 45.3467 84.429 44.3791 83.2353 44.3779L53.3345 44.3778Z" fill="#1E2E36" />
			<path d="M83.2353 87.1791H53.3345C50.8469 87.1763 48.8308 85.1604 48.8281 82.6727V71.057C48.831 68.5693 50.8469 66.5532 53.3345 66.5505H83.2353C85.723 66.5534 87.739 68.5693 87.7417 71.057V82.6727C87.739 85.1604 85.7231 87.1764 83.2353 87.1791ZM53.3345 68.8941C52.1406 68.8955 51.1732 69.863 51.1719 71.0568V82.6725C51.1732 83.8665 52.1408 84.8338 53.3345 84.8352H83.2353C84.4292 84.8338 85.3968 83.8663 85.398 82.6725V71.0568C85.3966 69.8629 84.429 68.8953 83.2353 68.8941H53.3345Z" fill="#1E2E36" />
			<path d="M95.4935 87.1791H89.9047C87.417 87.1762 85.401 85.1603 85.3983 82.6726V60.4356C85.4011 57.948 87.417 55.9319 89.9047 55.9292H95.4935C97.9812 55.9321 99.9973 57.948 100 60.4356V82.6726C99.9971 85.1603 97.9812 87.1764 95.4935 87.1791ZM89.9045 58.273C88.7106 58.2743 87.7432 59.2417 87.7418 60.4356V82.6726C87.7432 83.8666 88.7108 84.834 89.9045 84.8353H95.4934C96.6873 84.834 97.6549 83.8664 97.656 82.6725V60.4356C97.6547 59.2417 96.6873 58.2741 95.4934 58.273H89.9045Z" fill="#1E2E36" />
			<path d="M52.7396 68.8941H47.2604C46.6133 68.8941 46.0886 68.3694 46.0886 67.7223C46.0886 67.0751 46.6133 66.5503 47.2604 66.5503H52.7396C53.3867 66.5503 53.9116 67.075 53.9116 67.7223C53.9116 68.3696 53.3867 68.8941 52.7396 68.8941Z" fill="#1E2E36" />
			<path d="M71.4504 38.6387H28.5495C27.9024 38.6387 27.3777 38.1141 27.3777 37.4668V9.62467C27.3777 8.97754 27.9024 8.45288 28.5495 8.45288H71.4504C72.0976 8.45288 72.6222 8.97754 72.6222 9.62467V37.4668C72.6222 38.1139 72.0976 38.6387 71.4504 38.6387ZM29.7215 36.295H70.2787V10.7965H29.7215V36.295Z" fill="#1E2E36" />
			<path d="M67.5469 34.735H32.4531C31.8059 34.735 31.2813 34.2104 31.2813 33.5631V13.5282C31.2813 12.8811 31.8059 12.3564 32.4531 12.3564H67.5469C68.1942 12.3564 68.7188 12.8811 68.7188 13.5282V33.5631C68.7187 34.2104 68.194 34.735 67.5469 34.735ZM33.625 32.3913H66.3751V14.7002H33.625V32.3913Z" fill="#1E2E36" />
			<path d="M36.6535 30.4398C36.0063 30.4398 35.4815 29.9152 35.4815 29.268C35.4815 28.9572 35.605 28.6591 35.8247 28.4393L41.8511 22.4128C42.3087 21.9552 43.0508 21.9552 43.5084 22.4128L47.1655 26.0697C47.6231 26.5273 47.6231 27.2694 47.1655 27.727C46.7079 28.1846 45.9658 28.1846 45.5082 27.727L42.6798 24.8988L37.482 30.0966C37.2626 30.3167 36.9643 30.4402 36.6535 30.4398Z" fill="#1E2E36" />
			<path d="M63.3461 30.3798C63.0352 30.3802 62.7369 30.2567 62.5175 30.0366C61.0915 28.6106 59.6655 27.1839 58.2395 25.7565C56.6337 24.1528 55.0292 22.5482 53.4259 20.9428L52.6742 20.1916C52.4374 19.955 52.2006 19.7183 51.9638 19.4817L45.4418 26.0036C44.9842 26.4612 44.2421 26.4612 43.7845 26.0036C43.3269 25.546 43.3269 24.804 43.7845 24.3464L51.1356 16.9953C51.3553 16.7756 51.6535 16.6521 51.9643 16.6521H51.9651C52.2763 16.6523 52.5744 16.7763 52.7942 16.9965C53.3057 17.5094 53.8178 18.0219 54.331 18.5339L55.0839 19.2862C56.6866 20.891 58.291 22.4954 59.8971 24.0994C61.3217 25.5261 62.7477 26.9528 64.1751 28.3795C64.6327 28.8371 64.6327 29.5791 64.1751 30.0368C63.9548 30.2563 63.6569 30.3798 63.3461 30.3798Z" fill="#1E2E36" />
			<path d="M59.0688 26.1003C58.7582 26.1003 58.4602 25.9771 58.2405 25.7575C56.6334 24.1526 55.0285 22.5477 53.4256 20.9427C53.092 20.6087 52.9913 20.107 53.1704 19.6702C54.1886 17.1856 57.0281 15.9969 59.5128 17.015C61.9974 18.0332 63.1861 20.8727 62.168 23.3574C61.6742 24.5623 60.7177 25.5189 59.5128 26.0126C59.372 26.0706 59.2212 26.1003 59.0688 26.1003ZM55.7176 19.921C56.8981 21.1026 58.0796 22.2841 59.2624 23.4658C60.3398 22.5854 60.4994 20.9984 59.619 19.921C58.7386 18.8437 57.1516 18.6841 56.0742 19.5645C55.9438 19.671 55.8242 19.7905 55.7176 19.921Z" fill="#1E2E36" />
			<path d="M92.699 91.547C91.2829 91.5487 90.0485 90.5844 89.7074 89.21L88.9794 86.2906C88.8228 85.6626 89.2049 85.0266 89.8329 84.87C89.9257 84.8469 90.0209 84.8352 90.1165 84.8352H95.2814C95.9285 84.8352 96.4534 85.3599 96.4534 86.007C96.4534 86.1026 96.4417 86.1979 96.4186 86.2906L95.6905 89.21C95.3495 90.5844 94.115 91.5489 92.699 91.547ZM91.6165 87.179L91.9816 88.6428C92.0804 89.0389 92.4816 89.2801 92.8779 89.1813C93.1431 89.1151 93.3502 88.908 93.4164 88.6428L93.7814 87.1788L91.6165 87.179Z" fill="#1E2E36" />
			<path d="M7.30102 91.547C5.88497 91.5487 4.65051 90.5844 4.30946 89.21L3.58142 86.2906C3.42483 85.6626 3.80693 85.0266 4.43497 84.87C4.52771 84.8469 4.62298 84.8352 4.71859 84.8352H9.88346C10.5306 84.8352 11.0554 85.3599 11.0554 86.007C11.0554 86.1026 11.0438 86.1979 11.0206 86.2906L10.2926 89.21C9.95136 90.5844 8.7169 91.5489 7.30102 91.547ZM6.21859 87.179L6.58362 88.6428C6.68244 89.0389 7.08362 89.2801 7.47991 89.1813C7.74511 89.1151 7.95221 88.908 8.01842 88.6428L8.38346 87.1788L6.21859 87.179Z" fill="#1E2E36" />
		</g>
		<defs>
			<clipPath id="clip0_628_603">
				<rect width="100" height="100" fill="white" />
			</clipPath>
		</defs>
	</symbol>
	<symbol id="bed" width="100" height="100" viewBox="0 0 100 100" fill="none" xmlns="http://www.w3.org/2000/svg">
		<g clip-path="url(#clip0_628_525)">
			<path d="M84.6851 33.7601H15.3149C14.6678 33.7601 14.1431 33.2354 14.1431 32.5883V8.24723C14.1431 7.6001 14.6678 7.07544 15.3149 7.07544H84.6851C85.3323 7.07544 85.8571 7.6001 85.8571 8.24723V32.5883C85.8569 33.2354 85.3323 33.7601 84.6851 33.7601ZM16.4867 31.4164H83.5132V9.41902H16.4867V31.4164Z" fill="#44C697" />
			<path d="M79.3066 33.7601H20.693C20.0459 33.7601 19.5212 33.2354 19.5212 32.5883V13.6254C19.5212 12.9783 20.0459 12.4536 20.693 12.4536H79.3066C79.9538 12.4536 80.4786 12.9783 80.4786 13.6254V32.5881C80.4786 33.2354 79.9539 33.7601 79.3066 33.7601ZM21.865 31.4163H78.1349V14.7974H21.865V31.4163Z" fill="#44C697" />
			<path d="M46.4656 33.76H24.2274C21.6295 33.7571 19.5242 31.6517 19.5212 29.0539V17.1596C19.5241 14.5616 21.6295 12.4564 24.2274 12.4534H46.4656C49.0636 12.4562 51.1689 14.5616 51.1719 17.1596V29.0539C51.1689 31.6519 49.0636 33.7571 46.4656 33.76ZM24.2274 14.7973C22.9234 14.7988 21.8665 15.8556 21.8649 17.1598V29.0541C21.8665 30.3581 22.9232 31.415 24.2274 31.4164H46.4656C47.7697 31.415 48.8266 30.3581 48.8281 29.0541V17.1598C48.8266 15.8557 47.7699 14.7988 46.4656 14.7973H24.2274Z" fill="#44C697" />
			<path d="M75.7723 33.76H53.5341C50.9361 33.7571 48.8309 31.6517 48.8278 29.0539V17.1596C48.8307 14.5616 50.9361 12.4564 53.5341 12.4534H75.7723C78.3703 12.4562 80.4755 14.5616 80.4785 17.1596V29.0539C80.4755 31.6519 78.3703 33.7571 75.7723 33.76ZM53.5341 14.7973C52.23 14.7988 51.1731 15.8556 51.1716 17.1598V29.0541C51.1731 30.3581 52.2299 31.415 53.5341 31.4164H75.7723C77.0763 31.415 78.1333 30.3581 78.1348 29.0541V17.1598C78.1333 15.8557 77.0765 14.7988 75.7723 14.7973H53.5341Z" fill="#44C697" />
			<path d="M85.5331 92.9248H14.4667C11.8689 92.9218 9.76366 90.8167 9.76062 88.2187V36.1223C9.76366 33.5245 11.8689 31.4193 14.4667 31.4163H85.5331C88.131 31.4191 90.2363 33.5244 90.2393 36.1223V88.2187C90.2363 90.8165 88.131 92.9218 85.5331 92.9248ZM14.4667 33.76C13.1627 33.7614 12.1057 34.8183 12.1042 36.1223V88.2187C12.1057 89.5228 13.1625 90.5795 14.4667 90.5811H85.5331C86.8371 90.5795 87.8939 89.5228 87.8954 88.2187V36.1223C87.8939 34.8183 86.8371 33.7614 85.5331 33.76H14.4667Z" fill="#44C697" />
			<path d="M85.9842 9.41893H14.0157C11.6667 9.41623 9.76332 7.51268 9.76062 5.16386V4.25507C9.76332 1.90625 11.6667 0.00270271 14.0157 0H85.9842C88.3332 0.00270271 90.2366 1.90625 90.2393 4.25507V5.16386C90.2366 7.51285 88.3331 9.41623 85.9842 9.41893ZM14.0157 2.34375C12.9606 2.34494 12.1056 3.20001 12.1044 4.25507V5.16386C12.1056 6.21893 12.9606 7.074 14.0157 7.07518H85.9842C87.0393 7.074 87.8944 6.21893 87.8956 5.16386V4.25507C87.8944 3.20001 87.0393 2.34494 85.9842 2.34375H14.0157Z" fill="#44C697" />
			<path d="M85.9842 100H14.0157C11.6667 99.9973 9.76332 98.0937 9.76062 95.7449V94.8361C9.76332 92.4871 11.6669 90.5838 14.0157 90.5811H85.9842C88.3332 90.5838 90.2366 92.4873 90.2393 94.8361V95.7449C90.2366 98.0937 88.3331 99.9973 85.9842 100ZM14.0157 92.9248C12.9606 92.926 12.1056 93.7811 12.1044 94.8361V95.7449C12.1056 96.8 12.9606 97.655 14.0157 97.6562H85.9842C87.0393 97.655 87.8944 96.8 87.8956 95.7449V94.8361C87.8944 93.7811 87.0393 92.926 85.9842 92.9248H14.0157Z" fill="#44C697" />
		</g>
		<defs>
			<clipPath id="clip0_628_525">
				<rect width="100" height="100" fill="white" />
			</clipPath>
		</defs>
	</symbol>
	<symbol id="armchair" width="100" height="100" viewBox="0 0 100 100" fill="none" xmlns="http://www.w3.org/2000/svg">
		<path d="M75.8968 52.6612H24.1031C21.6154 52.6583 19.5994 50.6424 19.5967 48.1547V15.6307C19.5996 13.143 21.6154 11.127 24.1031 11.1243H75.8968C78.3844 11.1271 80.4005 13.143 80.4032 15.6307V48.1547C80.4005 50.6424 78.3846 52.6585 75.8968 52.6612ZM24.1031 13.468C22.9092 13.4694 21.9418 14.4369 21.9404 15.6307V48.1547C21.9418 49.3487 22.9094 50.3161 24.1031 50.3174H75.8968C77.0907 50.3161 78.0581 49.3485 78.0594 48.1547V15.6307C78.0581 14.4368 77.0905 13.4694 75.8968 13.468H24.1031Z" fill="#1E2E36" />
		<path d="M75.8968 81.8929H24.1031C21.6154 81.89 19.5994 79.8741 19.5967 77.3864V54.8241C19.5996 52.3364 21.6154 50.3203 24.1031 50.3176H75.8968C78.3844 50.3205 80.4005 52.3364 80.4032 54.8241V77.3864C80.4005 79.8741 78.3846 81.89 75.8968 81.8929ZM24.1031 52.6612C22.9092 52.6626 21.9418 53.6301 21.9404 54.8239V77.3863C21.9418 78.5802 22.9094 79.5476 24.1031 79.5489H75.8968C77.0907 79.5476 78.0581 78.58 78.0594 77.3863V54.8241C78.0581 53.6301 77.0905 52.6627 75.8968 52.6614H24.1031V52.6612Z" fill="#1E2E36" />
		<path d="M95.4936 81.8928H82.5662C80.0785 81.8899 78.0625 79.874 78.0598 77.3864V37.8441C78.0626 35.3564 80.0785 33.3403 82.5662 33.3376H95.4936C97.9812 33.3405 99.9973 35.3564 100 37.8441V77.3862C99.9971 79.874 97.9812 81.8899 95.4936 81.8928ZM82.566 35.6814C81.3721 35.6828 80.4047 36.6503 80.4033 37.8441V77.3862C80.4047 78.5801 81.3723 79.5475 82.566 79.5489H95.4934C96.6873 79.5475 97.6547 78.5799 97.6561 77.3862V37.8441C97.6547 36.6502 96.6871 35.6828 95.4934 35.6814H82.566Z" fill="#1E2E36" />
		<path d="M17.434 81.8928H4.5066C2.01875 81.8899 0.00287163 79.874 0 77.3862V37.8441C0.00287163 35.3564 2.01875 33.3403 4.50643 33.3376H17.4338C19.9215 33.3405 21.9375 35.3564 21.9402 37.8441V77.3862C21.9375 79.874 19.9217 81.8899 17.434 81.8928ZM4.50643 35.6814C3.31251 35.6828 2.34511 36.6503 2.34375 37.8441V77.3862C2.34511 78.5801 3.31267 79.5475 4.50643 79.5489H17.4338C18.6277 79.5475 19.5951 78.5799 19.5965 77.3862V37.8441C19.5951 36.6502 18.6276 35.6828 17.4338 35.6814H4.50643Z" fill="#1E2E36" />
		<path d="M79.2314 67.2771H20.7685C20.1213 67.2771 19.5967 66.7524 19.5967 66.1053C19.5967 65.4582 20.1213 64.9333 20.7685 64.9333H79.2314C79.8785 64.9333 80.4034 65.458 80.4034 66.1053C80.4034 66.7526 79.8787 67.2771 79.2314 67.2771Z" fill="#1E2E36" />
		<path d="M10.9701 88.8759C9.02871 88.8782 7.33597 87.5558 6.86857 85.6715L5.70472 81.0042C5.54796 80.3764 5.93006 79.7404 6.55776 79.5836C6.65067 79.5605 6.74594 79.5487 6.84154 79.5488H15.0987C15.7458 79.5488 16.2704 80.0733 16.2704 80.7205C16.2704 80.8161 16.2588 80.9115 16.2357 81.0042L15.0716 85.6715C14.6042 87.556 12.9115 88.8782 10.9701 88.8759ZM8.34155 81.8928L9.14256 85.1044C9.39425 86.1137 10.4166 86.7279 11.4258 86.4762C12.1015 86.3076 12.6291 85.7801 12.7976 85.1044L13.5987 81.8928H8.34155Z" fill="#1E2E36" />
		<path d="M89.0298 88.876C87.0883 88.8783 85.3955 87.5559 84.9281 85.6716L83.7643 81.0045C83.6075 80.3766 83.9896 79.7406 84.6173 79.5839C84.7102 79.5607 84.8055 79.5489 84.9011 79.5491H93.1582C93.8053 79.5491 94.33 80.0736 94.33 80.7207C94.33 80.8163 94.3184 80.9118 94.2952 81.0045L93.1314 85.6716C92.664 87.5559 90.9712 88.8783 89.0298 88.876ZM86.4013 81.8928L87.2021 85.1043C87.4538 86.1136 88.4761 86.728 89.4854 86.4763C90.1613 86.3077 90.6888 85.7802 90.8574 85.1043L91.6582 81.8927L86.4013 81.8928Z" fill="#1E2E36" />
	</symbol>
	<symbol id="dresser" width="100" height="88" viewBox="0 0 100 88" fill="none" xmlns="http://www.w3.org/2000/svg">
		<path d="M93.5451 36.0745H6.45487C5.80774 36.0745 5.28308 35.5499 5.28308 34.9028V9.43058C5.28308 8.78345 5.80774 8.25879 6.45487 8.25879H93.5451C94.1922 8.25879 94.717 8.78345 94.717 9.43058V34.9026C94.7168 35.5499 94.1922 36.0745 93.5451 36.0745ZM7.62684 33.7308H92.3733V10.6025H7.62684V33.7308Z" fill="#1E2E36" />
		<path d="M93.5451 61.5466H6.45487C5.80774 61.5466 5.28308 61.022 5.28308 60.3747V34.9027C5.28308 34.2555 5.80774 33.7307 6.45487 33.7307H93.5451C94.1922 33.7307 94.717 34.2554 94.717 34.9027V60.3747C94.7168 61.022 94.1922 61.5466 93.5451 61.5466ZM7.62684 59.2029H92.3733V36.0746H7.62684V59.2029Z" fill="#1E2E36" />
		<path d="M93.5451 87.0186H6.45487C5.80774 87.0186 5.28308 86.494 5.28308 85.8467V60.3748C5.28308 59.7277 5.80774 59.2029 6.45487 59.2029H93.5451C94.1922 59.2029 94.717 59.7275 94.717 60.3748V85.8468C94.7168 86.494 94.1922 87.0186 93.5451 87.0186ZM7.62684 84.6749H92.3733V61.5466H7.62684V84.6749Z" fill="#1E2E36" />
		<path d="M52.1919 23.3386H47.8081C47.1609 23.3386 46.6361 22.814 46.6361 22.1668C46.6361 21.5197 47.1608 20.9949 47.8081 20.9949H52.1919C52.839 20.9949 53.3638 21.5195 53.3638 22.1668C53.3638 22.8141 52.839 23.3386 52.1919 23.3386Z" fill="#1E2E36" />
		<path d="M52.1919 48.8107H47.8081C47.1609 48.8107 46.6361 48.2861 46.6361 47.6388C46.6361 46.9915 47.1608 46.4668 47.8081 46.4668H52.1919C52.839 46.4668 53.3638 46.9915 53.3638 47.6388C53.3638 48.2861 52.839 48.8107 52.1919 48.8107Z" fill="#1E2E36" />
		<path d="M52.1919 74.2827H47.8081C47.1609 74.2827 46.6361 73.7581 46.6361 73.1108C46.6361 72.4635 47.1608 71.939 47.8081 71.939H52.1919C52.839 71.939 53.3638 72.4636 53.3638 73.1108C53.3638 73.7579 52.839 74.2827 52.1919 74.2827Z" fill="#1E2E36" />
		<path d="M96.875 10.6027H3.12501C1.4 10.6006 0.00202703 9.20267 0 7.47767V4.10621C0.00202703 2.3812 1.4 0.983228 3.12501 0.981201H96.875C98.6 0.983228 99.998 2.3812 100 4.10621V7.47767C99.998 9.20267 98.6 10.6006 96.875 10.6027ZM3.12501 3.32496C2.69375 3.32546 2.34426 3.67496 2.34375 4.10621V7.47767C2.34426 7.90892 2.69375 8.25841 3.12501 8.25892H96.875C97.3062 8.25841 97.6557 7.90892 97.6562 7.47767V4.10621C97.6557 3.67496 97.3062 3.32546 96.875 3.32496H3.12501Z" fill="#1E2E36" />
	</symbol>
	<symbol id="cupboard" width="68" height="100" viewBox="0 0 68 100" fill="none" xmlns="http://www.w3.org/2000/svg">
		<path d="M66.7649 100H1.2349C0.587773 100 0.0631104 99.4753 0.0631104 98.828V1.17179C0.0631104 0.524663 0.587773 0 1.2349 0H66.7649C67.412 0 67.9369 0.524663 67.9369 1.17179V98.828C67.9367 99.4753 67.412 100 66.7649 100ZM2.40686 97.6562H65.5929V2.34375H2.40686V97.6562Z" fill="#1E2E36" />
		<path d="M33.9998 71.4942C33.3527 71.4942 32.8279 71.119 32.8279 70.6564V0.837839C32.8279 0.37517 33.3525 0 33.9998 0C34.6471 0 35.1716 0.37517 35.1716 0.837839V70.6562C35.1718 71.1189 34.6471 71.4942 33.9998 71.4942Z" fill="#1E2E36" />
		<path d="M33.9998 100H1.2349C0.587773 100 0.0631104 99.4753 0.0631104 98.828V84.5751C0.0631104 83.928 0.587773 83.4033 1.2349 83.4033H33.9998C34.6469 83.4033 35.1716 83.928 35.1716 84.5751V98.828C35.1718 99.4753 34.6471 100 33.9998 100ZM2.40686 97.6562H32.828V85.7471H2.40686V97.6562Z" fill="#1E2E36" />
		<path d="M33.9998 85.7472H1.2349C0.587773 85.7472 0.0631104 85.2225 0.0631104 84.5752V70.3224C0.0631104 69.6752 0.587773 69.1504 1.2349 69.1504H33.9998C34.6469 69.1504 35.1716 69.6751 35.1716 70.3224V84.5752C35.1718 85.2225 34.6471 85.7472 33.9998 85.7472ZM2.4067 83.4035H32.8279V71.4943H2.40686L2.4067 83.4035Z" fill="#1E2E36" />
		<path d="M19.2667 78.6206H15.9681C15.3209 78.6206 14.7963 78.0959 14.7963 77.4488C14.7963 76.8017 15.3209 76.2769 15.9681 76.2769H19.2667C19.9138 76.2769 20.4385 76.8015 20.4385 77.4488C20.4385 78.0961 19.9138 78.6206 19.2667 78.6206Z" fill="#1E2E36" />
		<path d="M27.0937 38.3537C26.4466 38.3537 25.9218 37.8291 25.9218 37.1819V34.3122C25.9218 33.665 26.4464 33.1404 27.0937 33.1404C27.741 33.1404 28.2655 33.665 28.2655 34.3122V37.1819C28.2655 37.8291 27.7408 38.3537 27.0937 38.3537Z" fill="#1E2E36" />
		<path d="M40.906 52.607C40.2589 52.607 39.7343 52.0823 39.7343 51.435V48.5653C39.7343 47.9181 40.2589 47.3933 40.906 47.3933C41.5532 47.3933 42.078 47.918 42.078 48.5653V51.435C42.078 52.0823 41.5533 52.607 40.906 52.607Z" fill="#1E2E36" />
		<path d="M19.2667 92.8735H15.9681C15.3209 92.8735 14.7963 92.3489 14.7963 91.7018C14.7963 91.0546 15.3209 90.5298 15.9681 90.5298H19.2667C19.9138 90.5298 20.4385 91.0545 20.4385 91.7018C20.4385 92.3491 19.9138 92.8735 19.2667 92.8735Z" fill="#1E2E36" />
	</symbol>
	<symbol id="kitchen" width="100" height="100" viewBox="0 0 100 100" fill="none" xmlns="http://www.w3.org/2000/svg">
		<g clip-path="url(#clip0_628_675)">
			<path d="M67.7878 91.1305H32.212C31.5648 91.1305 31.0402 90.6058 31.0402 89.9585V62.7137C31.0402 62.0666 31.5648 61.5417 32.212 61.5417H67.7878C68.435 61.5417 68.9598 62.0664 68.9598 62.7137V89.9585C68.9596 90.6058 68.435 91.1305 67.7878 91.1305ZM33.3839 88.7867H66.6161V63.8857H33.3839V88.7867Z" fill="#1E2E36" />
			<path d="M67.7878 96.1447H32.212C31.5648 96.1447 31.0402 95.62 31.0402 94.9727V89.9583C31.0402 89.3112 31.5648 88.7864 32.212 88.7864H67.7878C68.435 88.7864 68.9598 89.311 68.9598 89.9583V94.9727C68.9596 95.62 68.435 96.1447 67.7878 96.1447ZM33.3839 93.8009H66.6161V91.1303H33.3839V93.8009Z" fill="#1E2E36" />
			<path d="M67.7878 63.8856H32.212C31.5648 63.8856 31.0402 63.3609 31.0402 62.7138V51.1624C31.0402 50.5153 31.5648 49.9905 32.212 49.9905H67.7878C68.435 49.9905 68.9598 50.5151 68.9598 51.1624V62.7138C68.9596 63.3609 68.435 63.8856 67.7878 63.8856ZM33.3839 61.5419H66.6161V52.3342H33.3839V61.5419Z" fill="#1E2E36" />
			<path d="M49.9998 60.7356C47.9024 60.7356 46.202 59.0352 46.202 56.9379C46.202 54.8406 47.9024 53.1401 49.9997 53.1401C52.0971 53.1401 53.7975 54.8405 53.7975 56.9378C53.7953 59.0344 52.0963 60.7332 49.9998 60.7356ZM49.9998 55.4839C49.1968 55.4839 48.5458 56.1349 48.5458 56.9378C48.5458 57.7408 49.1968 58.3918 49.9997 58.3918C50.8027 58.3918 51.4537 57.7408 51.4537 56.9379C51.4531 56.1352 50.8025 55.4847 49.9998 55.4839Z" fill="#1E2E36" />
			<path d="M59.8668 60.7356C57.7693 60.7356 56.069 59.0352 56.069 56.9379C56.069 54.8405 57.7693 53.1401 59.8666 53.1401C61.9641 53.1401 63.6644 54.8405 63.6644 56.9378C63.6622 59.0344 61.9632 60.7332 59.8668 60.7356ZM59.8668 55.4839C59.0637 55.4839 58.4127 56.1349 58.4127 56.9378C58.4127 57.7408 59.0637 58.3918 59.8666 58.3918C60.6697 58.3918 61.3207 57.7408 61.3207 56.9379C61.3198 56.1352 60.6695 55.4849 59.8668 55.4839Z" fill="#1E2E36" />
			<path d="M40.133 60.7358C38.0355 60.7358 36.3352 59.0354 36.3352 56.9379C36.3352 54.8405 38.0355 53.1401 40.133 53.1401C42.2305 53.1401 43.9308 54.8405 43.9308 56.9379C43.9285 59.0346 42.2295 60.7334 40.133 60.7358ZM40.133 55.4841C39.33 55.4841 38.679 56.1351 38.679 56.9381C38.679 57.7412 39.33 58.3922 40.133 58.3922C40.9361 58.3922 41.5871 57.7412 41.5871 56.9381C41.5862 56.1354 40.9357 55.4849 40.133 55.4841Z" fill="#1E2E36" />
			<path d="M60.9086 70.7368H39.0915C37.5693 70.7362 36.3359 69.5019 36.3365 67.9798C36.3372 66.4585 37.5702 65.2254 39.0915 65.2249H60.9086C62.4307 65.2242 63.6651 66.4576 63.6656 67.9798C63.6663 69.5019 62.4329 70.7363 60.9107 70.7368C60.9099 70.7368 60.9092 70.7368 60.9086 70.7368ZM39.0915 67.5684C38.8637 67.5686 38.6793 67.7534 38.6795 67.9811C38.6796 68.2086 38.8639 68.3929 39.0915 68.3931H60.9086C61.1363 68.3933 61.3211 68.2088 61.3212 67.9811C61.3214 67.7534 61.1369 67.5686 60.9092 67.5684C60.9091 67.5684 60.9087 67.5684 60.9086 67.5684H39.0915Z" fill="#1E2E36" />
			<path d="M59.8668 87.389H40.133C39.4858 87.389 38.9612 86.8643 38.9612 86.217V69.5648C38.9612 68.9177 39.4858 68.3928 40.133 68.3928H59.8668C60.5139 68.3928 61.0386 68.9175 61.0386 69.5648V86.217C61.0388 86.8643 60.5141 87.389 59.8668 87.389ZM41.3049 85.0452H58.695V70.7367H41.3049V85.0452Z" fill="#1E2E36" />
			<path d="M42.1912 52.3341C41.5441 52.3341 41.0194 51.8095 41.0194 51.1622V48.2542C41.0194 47.6071 41.5441 47.0823 42.1912 47.0823C42.8383 47.0823 43.3632 47.6069 43.3632 48.2542V51.1622C43.3632 51.8095 42.8385 52.3341 42.1912 52.3341Z" fill="#1E2E36" />
			<path d="M47.7467 52.3342C47.0996 52.3342 46.5749 51.8096 46.5749 51.1623V49.426H45.0124C44.3653 49.426 43.8405 48.9013 43.8405 48.254C43.8405 47.6067 44.3651 47.082 45.0124 47.082H47.7467C48.3938 47.082 48.9187 47.6067 48.9187 48.254V51.1623C48.9185 51.8096 48.3938 52.3342 47.7467 52.3342Z" fill="#1E2E36" />
			<path d="M36.6356 52.3342C35.9885 52.3342 35.4636 51.8096 35.4636 51.1623V48.254C35.4636 47.6069 35.9883 47.082 36.6356 47.082H39.3699C40.017 47.082 40.5417 47.6067 40.5417 48.254C40.5417 48.9013 40.017 49.426 39.3699 49.426H37.8074V51.1623C37.8075 51.8096 37.2829 52.3342 36.6356 52.3342Z" fill="#1E2E36" />
			<path d="M57.8088 52.3341C57.1617 52.3341 56.6368 51.8095 56.6368 51.1622V48.2542C56.6368 47.6071 57.1615 47.0823 57.8088 47.0823C58.4561 47.0823 58.9806 47.6069 58.9806 48.2542V51.1622C58.9806 51.8095 58.4559 52.3341 57.8088 52.3341Z" fill="#1E2E36" />
			<path d="M52.2534 52.3342C51.6063 52.3342 51.0814 51.8096 51.0814 51.1623V48.254C51.0814 47.6069 51.6061 47.082 52.2534 47.082H54.9877C55.6348 47.082 56.1596 47.6067 56.1596 48.254C56.1596 48.9013 55.635 49.426 54.9877 49.426H53.4252V51.1623C53.4253 51.8096 52.9007 52.3342 52.2534 52.3342Z" fill="#1E2E36" />
			<path d="M63.3645 52.3342C62.7173 52.3342 62.1927 51.8096 62.1927 51.1623V49.426H60.6302C59.983 49.426 59.4584 48.9013 59.4584 48.254C59.4584 47.6067 59.983 47.082 60.6302 47.082H63.3645C64.0116 47.082 64.5364 47.6067 64.5364 48.254V51.1623C64.5362 51.8096 64.0116 52.3342 63.3645 52.3342Z" fill="#1E2E36" />
			<path d="M73.452 56.6021H71.3542C70.707 56.6021 70.1824 56.0774 70.1824 55.4303C70.1824 54.7831 70.707 54.2583 71.3542 54.2583H73.4521C74.0993 54.2583 74.6239 54.783 74.6239 55.4303C74.6239 56.0776 74.0993 56.6021 73.452 56.6021Z" fill="#1E2E36" />
			<path d="M77.0183 96.1448H67.788C67.1409 96.1448 66.6162 95.6201 66.6162 94.9728V51.1623C66.6162 50.5151 67.1409 49.9905 67.788 49.9905H77.0183C77.6654 49.9905 78.1902 50.5151 78.1902 51.1623V94.9728C78.1901 95.6201 77.6654 96.1448 77.0183 96.1448ZM68.9598 93.801H75.8463V52.3342H68.9598V93.801Z" fill="#1E2E36" />
			<path d="M98.828 74.2395H77.0182C76.3711 74.2395 75.8464 73.7148 75.8464 73.0677V51.1624C75.8464 50.5153 76.3711 49.9905 77.0182 49.9905H98.8282C99.4754 49.9905 100 50.5151 100 51.1624V73.0677C100 73.7148 99.4753 74.2395 98.828 74.2395ZM78.19 71.8958H97.6563V52.3342H78.19V71.8958Z" fill="#1E2E36" />
			<path d="M90.7335 56.6021H85.1127C84.4656 56.6021 83.9409 56.0774 83.9409 55.4303C83.9409 54.7831 84.4656 54.2583 85.1127 54.2583H90.7335C91.3806 54.2583 91.9055 54.783 91.9055 55.4303C91.9055 56.0776 91.3806 56.6021 90.7335 56.6021Z" fill="#1E2E36" />
			<path d="M19.5024 56.6021H13.8816C13.2345 56.6021 12.7098 56.0774 12.7098 55.4303C12.7098 54.7831 13.2345 54.2583 13.8816 54.2583H19.5022C20.1494 54.2583 20.674 54.783 20.674 55.4303C20.674 56.0776 20.1495 56.6021 19.5024 56.6021Z" fill="#1E2E36" />
			<path d="M98.828 96.1448H77.0182C76.3711 96.1448 75.8464 95.6201 75.8464 94.9728V73.0677C75.8464 72.4206 76.3711 71.8958 77.0182 71.8958H98.8282C99.4754 71.8958 100 72.4204 100 73.0677V94.9728C100 95.6201 99.4753 96.1448 98.828 96.1448ZM78.19 93.801H97.6563V74.2395H78.19V93.801Z" fill="#1E2E36" />
			<path d="M90.7335 78.5071H85.1127C84.4656 78.5071 83.9409 77.9824 83.9409 77.3351C83.9409 76.688 84.4656 76.1633 85.1127 76.1633H90.7335C91.3806 76.1633 91.9055 76.688 91.9055 77.3351C91.9053 77.9824 91.3806 78.5071 90.7335 78.5071Z" fill="#1E2E36" />
			<path d="M16.6919 96.1448H1.17179C0.524663 96.1448 0 95.6202 0 94.9729V62.7137C0 62.0666 0.524663 61.5417 1.17179 61.5417H16.6919C17.3391 61.5417 17.8637 62.0664 17.8637 62.7137V94.9729C17.8639 95.6202 17.3392 96.1448 16.6919 96.1448ZM2.34375 93.8011H15.5201V63.8857H2.34375V93.8011Z" fill="#1E2E36" />
			<path d="M32.2121 96.1448H16.6919C16.0448 96.1448 15.5201 95.6202 15.5201 94.9729V62.7137C15.5201 62.0666 16.0448 61.5417 16.6919 61.5417H32.2121C32.8592 61.5417 33.3839 62.0664 33.3839 62.7137V94.9729C33.384 95.6202 32.8594 96.1448 32.2121 96.1448ZM17.8639 93.8011H31.0403V63.8857H17.8639V93.8011Z" fill="#1E2E36" />
			<path d="M20.3975 81.9658C19.7504 81.9658 19.2257 81.4411 19.2257 80.794V76.893C19.2257 76.2459 19.7504 75.7212 20.3975 75.7212C21.0446 75.7212 21.5693 76.2459 21.5693 76.893V80.7942C21.5693 81.4411 21.0446 81.9658 20.3975 81.9658Z" fill="#1E2E36" />
			<path d="M12.9865 81.9658C12.3394 81.9658 11.8147 81.4411 11.8147 80.794V76.893C11.8147 76.2459 12.3394 75.7212 12.9865 75.7212C13.6336 75.7212 14.1583 76.2459 14.1583 76.893V80.7942C14.1583 81.4411 13.6336 81.9658 12.9865 81.9658Z" fill="#1E2E36" />
			<path d="M32.212 63.8856H1.17179C0.524663 63.8856 0 63.3609 0 62.7138V51.1624C0 50.5153 0.524663 49.9905 1.17179 49.9905H32.212C32.8592 49.9905 33.3838 50.5151 33.3838 51.1624V62.7138C33.384 63.3609 32.8593 63.8856 32.212 63.8856ZM2.34375 61.5419H31.0403V52.3342H2.34375V61.5419Z" fill="#1E2E36" />
			<path d="M66.4667 27.7771H33.5331C32.1569 27.7755 31.0417 26.6603 31.0402 25.2841V21.9188C31.0417 20.5426 32.1569 19.4275 33.5331 19.426H66.4669C67.8431 19.4275 68.9583 20.5428 68.9598 21.9189V25.2843C68.9583 26.6603 67.8429 27.7755 66.4667 27.7771ZM33.5331 21.7696C33.4508 21.7698 33.3841 21.8365 33.3839 21.9188V25.2841C33.3841 25.3664 33.4508 25.4331 33.5331 25.4333H66.4669C66.5492 25.4331 66.6159 25.3664 66.6161 25.2841V21.9188C66.6159 21.8365 66.5492 21.7698 66.4669 21.7696H33.5331Z" fill="#1E2E36" />
			<path d="M64.0241 21.7696H35.9759C34.6122 21.7696 33.5066 20.6642 33.5065 19.3005C33.5065 18.5409 33.856 17.8236 34.4543 17.3556L35.3548 16.651C38.9409 13.8627 41.0328 9.57008 41.0192 5.02751C41.0192 4.38038 41.5438 3.85571 42.1909 3.85571H57.8087C58.4558 3.85571 58.9805 4.38038 58.9805 5.02751C58.9668 9.57008 61.0587 13.8627 64.645 16.651L65.5454 17.3556C66.6195 18.1958 66.8092 19.7476 65.969 20.8216C65.5013 21.4201 64.7837 21.7698 64.0241 21.7696ZM43.3237 6.1993C43.006 11.0426 40.6311 15.5184 36.799 18.497L35.8984 19.2015C35.8438 19.2443 35.8342 19.3231 35.8769 19.3777C35.9007 19.4081 35.9372 19.4258 35.9757 19.4258H64.0241C64.0934 19.4258 64.1496 19.3696 64.1496 19.3003C64.1496 19.2618 64.1319 19.2253 64.1016 19.2017H64.1015L63.2011 18.4971C59.3689 15.5186 56.9942 11.0427 56.6764 6.19947H43.3237V6.1993Z" fill="#1E2E36" />
			<path d="M95.2003 27.7771H76.5516C74.9297 27.7771 73.6146 26.4622 73.6146 24.8401C73.6146 23.2179 74.9295 21.9031 76.5516 21.9031H95.2003C96.8223 21.9031 98.1373 23.2179 98.1373 24.8401C98.1373 26.4622 96.8223 27.7771 95.2003 27.7771ZM76.5516 24.247C76.2241 24.247 75.9584 24.5125 75.9584 24.8402C75.9584 25.1678 76.2239 25.4335 76.5516 25.4335H95.2003C95.5278 25.4335 95.7935 25.168 95.7935 24.8402C95.7935 24.5127 95.528 24.247 95.2003 24.247H76.5516Z" fill="#1E2E36" />
			<path d="M23.4483 27.7771H4.79967C3.17771 27.7771 1.86267 26.4622 1.86267 24.8401C1.86267 23.2179 3.17754 21.9031 4.79967 21.9031H23.4483C25.0703 21.9031 26.3853 23.2179 26.3853 24.8401C26.3853 26.4622 25.0705 27.7771 23.4483 27.7771ZM4.79967 24.247C4.47213 24.247 4.20642 24.5125 4.20642 24.8402C4.20642 25.1678 4.47197 25.4335 4.79967 25.4335H23.4483C23.7759 25.4335 24.0416 25.168 24.0416 24.8402C24.0416 24.5127 23.776 24.247 23.4483 24.247H4.79967Z" fill="#1E2E36" />
			<path d="M21.5774 24.247H16.8103C16.1632 24.247 15.6385 23.7223 15.6385 23.0752V19.0463C15.6385 18.3992 16.1632 17.8745 16.8103 17.8745H21.5774C22.2245 17.8745 22.7492 18.3992 22.7492 19.0463V23.0752C22.7494 23.7223 22.2247 24.247 21.5774 24.247ZM17.9823 21.9032H20.4056V20.2181H17.9823V21.9032Z" fill="#1E2E36" />
			<path d="M22.7005 20.2181H15.6873C15.0402 20.2181 14.5155 19.6934 14.5155 19.0463C14.5155 18.3992 15.0402 17.8745 15.6873 17.8745H22.7005C23.3476 17.8745 23.8723 18.3992 23.8723 19.0463C23.8723 19.6934 23.3476 20.2181 22.7005 20.2181Z" fill="#1E2E36" />
			<path d="M11.4375 24.247H6.67045C6.02332 24.247 5.49866 23.7223 5.49866 23.0752V19.0463C5.49866 18.3992 6.02332 17.8745 6.67045 17.8745H11.4375C12.0846 17.8745 12.6093 18.3992 12.6093 19.0463V23.0752C12.6093 23.7223 12.0846 24.247 11.4375 24.247ZM7.84224 21.9032H10.2656V20.2181H7.84241L7.84224 21.9032Z" fill="#1E2E36" />
			<path d="M12.5605 20.2181H5.54752C4.9004 20.2181 4.37573 19.6934 4.37573 19.0463C4.37573 18.3992 4.9004 17.8745 5.54752 17.8745H12.5607C13.2078 17.8745 13.7325 18.3992 13.7325 19.0463C13.7325 19.6934 13.2078 20.2181 12.5605 20.2181Z" fill="#1E2E36" />
			<path d="M21.5774 20.218H16.8103C16.1632 20.218 15.6385 19.6933 15.6385 19.0462V15.0175C15.6385 14.3704 16.1632 13.8457 16.8103 13.8457H21.5774C22.2245 13.8457 22.7492 14.3704 22.7492 15.0175V19.0462C22.7494 19.6933 22.2247 20.218 21.5774 20.218ZM17.9823 17.8743H20.4056V16.1893H17.9823V17.8743Z" fill="#1E2E36" />
			<path d="M22.7005 16.1893H15.6873C15.0402 16.1893 14.5155 15.6646 14.5155 15.0175C14.5155 14.3704 15.0402 13.8457 15.6873 13.8457H22.7005C23.3476 13.8457 23.8723 14.3704 23.8723 15.0175C23.8723 15.6646 23.3476 16.1893 22.7005 16.1893Z" fill="#1E2E36" />
			<path d="M11.4375 20.218H6.67045C6.02332 20.218 5.49866 19.6933 5.49866 19.0462V15.0175C5.49866 14.3704 6.02332 13.8457 6.67045 13.8457H11.4375C12.0846 13.8457 12.6093 14.3704 12.6093 15.0175V19.0462C12.6093 19.6933 12.0846 20.218 11.4375 20.218ZM7.84224 17.8743H10.2656V16.1893H7.84241L7.84224 17.8743Z" fill="#1E2E36" />
			<path d="M12.5605 16.1893H5.54752C4.9004 16.1893 4.37573 15.6646 4.37573 15.0175C4.37573 14.3704 4.9004 13.8457 5.54752 13.8457H12.5607C13.2078 13.8457 13.7325 14.3704 13.7325 15.0175C13.7325 15.6646 13.2078 16.1893 12.5605 16.1893Z" fill="#1E2E36" />
			<path d="M85.876 24.247C81.6985 24.2463 78.3123 20.8591 78.313 16.6816C78.3132 15.2588 78.7147 13.8647 79.4714 12.6598C79.686 12.3191 80.0605 12.1123 80.4632 12.1123H91.2887C91.6912 12.1123 92.0655 12.3189 92.2801 12.6596C94.502 16.1971 93.4355 20.8662 89.898 23.0882C88.6931 23.8451 87.299 24.2466 85.876 24.247ZM81.1547 14.4561C79.9263 17.0637 81.0444 20.1733 83.652 21.4017C86.2596 22.6301 89.3692 21.512 90.5976 18.9044C91.2611 17.4959 91.2611 15.8647 90.5976 14.4562H81.1547V14.4561Z" fill="#1E2E36" />
			<path d="M85.7668 14.4561C85.1197 14.4561 84.5948 13.9315 84.5948 13.2843V5.74479C84.5948 5.09766 85.1195 4.573 85.7668 4.573C86.4141 4.573 86.9386 5.09766 86.9386 5.74479V13.2843C86.9386 13.9315 86.4139 14.4561 85.7668 14.4561Z" fill="#1E2E36" />
			<path d="M85.7669 14.4562C85.1198 14.4562 84.5951 13.9313 84.5951 13.2842C84.5951 12.9734 84.7186 12.6754 84.9383 12.4556L88.9934 8.40057C89.4556 7.94753 90.1976 7.95513 90.6507 8.4173C91.0973 8.87304 91.0973 9.60227 90.6505 10.0578L86.5954 14.1129C86.3758 14.333 86.0777 14.4567 85.7669 14.4562Z" fill="#1E2E36" />
			<path d="M85.7669 14.456C85.4561 14.4564 85.1578 14.3329 84.9383 14.1128L80.8832 10.0577C80.4207 9.60502 80.4128 8.86296 80.8657 8.40046C81.3184 7.93795 82.0604 7.93002 82.5229 8.38289C82.5289 8.38863 82.5346 8.39454 82.5405 8.40046L86.5956 12.4555C87.0532 12.9131 87.0532 13.6552 86.5956 14.1128C86.3757 14.3326 86.0775 14.456 85.7669 14.456Z" fill="#1E2E36" />
			<path d="M60.8572 49.4261H55.1421C51.9016 49.4224 49.2756 46.7964 49.2719 43.5558V40.8011C49.2719 40.154 49.7965 39.6292 50.4438 39.6292H65.5555C66.2026 39.6292 66.7275 40.1538 66.7275 40.8011V43.5558C66.7237 46.7964 64.0977 49.4224 60.8572 49.4261ZM51.6158 41.9731V43.556C51.618 45.5028 53.1955 47.0803 55.1423 47.0825H60.8573C62.8041 47.0803 64.3817 45.5028 64.3839 43.556V41.9731H51.6158Z" fill="#1E2E36" />
			<path d="M67.7879 44.0384H65.5555C64.9084 44.0384 64.3835 43.5137 64.3835 42.8666C64.3835 42.2195 64.9082 41.6948 65.5555 41.6948H67.7879C68.4351 41.6948 68.9599 42.2195 68.9599 42.8666C68.9599 43.5137 68.4351 44.0384 67.7879 44.0384Z" fill="#1E2E36" />
			<path d="M50.0623 44.0384H47.8299C47.1827 44.0384 46.6581 43.5137 46.6581 42.8666C46.6581 42.2195 47.1827 41.6948 47.8299 41.6948H50.0623C50.7094 41.6948 51.2343 42.2195 51.2343 42.8666C51.2343 43.5137 50.7096 44.0384 50.0623 44.0384Z" fill="#1E2E36" />
			<path d="M65.5555 41.973H50.4438C49.7967 41.973 49.2719 41.4483 49.2719 40.8012C49.2719 40.5642 49.3436 40.3328 49.4779 40.1373C51.1175 37.7517 54.3827 36.2698 57.9996 36.2698C61.6165 36.2698 64.8815 37.7517 66.5212 40.1373C66.8877 40.6706 66.7526 41.4004 66.2193 41.7669C66.0241 41.901 65.7926 41.973 65.5555 41.973ZM53.5906 39.6292H62.4087C59.6252 38.2747 56.3739 38.2747 53.5906 39.6292Z" fill="#1E2E36" />
			<path d="M56.5687 38.7025C56.2817 38.7028 56.0045 38.5974 55.7903 38.4062C54.4156 37.1858 54.2906 35.0819 55.5111 33.7071C56.7315 32.3324 58.8354 32.2074 60.2102 33.4278C61.5849 34.6483 61.7099 36.7522 60.4895 38.127C60.4021 38.2255 60.3089 38.3185 60.2104 38.406C59.7297 38.8393 58.9886 38.8008 58.5553 38.3201C58.1221 37.8393 58.1606 37.0983 58.6413 36.665C58.645 36.6616 58.6488 36.6582 58.6525 36.655C59.0602 36.2947 59.0986 35.6723 58.7384 35.2647C58.3781 34.8571 57.7557 34.8185 57.3481 35.1787C56.9405 35.539 56.902 36.1615 57.2621 36.5691C57.289 36.5995 57.3175 36.628 57.3479 36.6549C57.8315 37.0849 57.8749 37.8256 57.4449 38.3093C57.2222 38.5596 56.9035 38.7025 56.5687 38.7025Z" fill="#1E2E36" />
			<path d="M13.9029 52.3343H8.95304C8.30591 52.3343 7.78125 51.8097 7.78125 51.1624V38.5754C7.78125 37.9282 8.30591 37.4036 8.95304 37.4036H13.9029C14.55 37.4036 15.0747 37.9282 15.0747 38.5754V51.1624C15.0748 51.8097 14.5502 52.3343 13.9029 52.3343ZM10.125 49.9906H12.7311V39.7473H10.125V49.9906Z" fill="#1E2E36" />
			<path d="M8.95301 52.3343H4.00334C3.35621 52.3343 2.83154 51.8097 2.83154 51.1624V38.5754C2.83154 37.9282 3.35621 37.4036 4.00334 37.4036H8.95301C9.60014 37.4036 10.1248 37.9282 10.1248 38.5754V51.1624C10.125 51.8097 9.6003 52.3343 8.95301 52.3343ZM5.17513 49.9906H7.78104V39.7473H5.1753L5.17513 49.9906Z" fill="#1E2E36" />
			<path d="M24.7744 52.3342H22.5644C20.3282 52.3317 18.5163 50.5195 18.5135 48.2834V44.1744C18.5135 43.5273 19.0382 43.0024 19.6853 43.0024H27.6533C28.3004 43.0024 28.8251 43.5271 28.8251 44.1744V48.2834C28.8227 50.5195 27.0105 52.3317 24.7744 52.3342ZM20.8575 45.3462V48.2834C20.8585 49.2258 21.6222 49.9893 22.5646 49.9905H24.7744C25.7168 49.9894 26.4805 49.2258 26.4815 48.2834V45.3464H20.8575V45.3462Z" fill="#1E2E36" />
			<path d="M28.3387 45.346H19C17.7781 45.3447 16.7879 44.3545 16.7865 43.1325V41.9171C16.7879 40.6952 17.7782 39.705 19 39.7036H28.3387C29.5607 39.705 30.5509 40.6952 30.5522 41.9171V43.1325C30.5509 44.3545 29.5607 45.3447 28.3387 45.346ZM19.1303 43.0023H28.2086V42.0474H19.1303V43.0023Z" fill="#1E2E36" />
			<path d="M77.9696 52.3342H71.9363C71.2892 52.3342 70.7645 51.8096 70.7645 51.1623V42.9156C70.7645 42.2685 71.2892 41.7437 71.9363 41.7437H77.9696C78.6167 41.7437 79.1416 42.2683 79.1416 42.9156V51.1623C79.1414 51.8096 78.6167 52.3342 77.9696 52.3342ZM73.1083 49.9905H76.7978V44.0876H73.1083V49.9905Z" fill="#1E2E36" />
			<path d="M77.9696 44.0875H71.9363C71.2892 44.0875 70.7645 43.5628 70.7645 42.9157V39.3133C70.7645 38.6662 71.2892 38.1414 71.9363 38.1414H77.9696C78.6167 38.1414 79.1416 38.666 79.1416 39.3133V42.9157C79.1414 43.5628 78.6167 44.0875 77.9696 44.0875ZM73.1083 41.7437H76.7978V40.4851H73.1083V41.7437Z" fill="#1E2E36" />
			<path d="M92.4371 48.3708C90.5225 48.3708 89.0227 46.5278 89.0227 44.1749C89.0227 41.822 90.5224 39.9788 92.4371 39.9788C94.3516 39.9788 95.8514 41.822 95.8514 44.1749C95.8514 46.5278 94.3516 48.3708 92.4371 48.3708ZM92.4371 42.3225C91.9317 42.3225 91.3665 43.1146 91.3665 44.1749C91.3665 45.235 91.9317 46.0271 92.4371 46.0271C92.9425 46.0271 93.5077 45.235 93.5077 44.1749C93.5077 43.1147 92.9425 42.3225 92.4371 42.3225Z" fill="#1E2E36" />
			<path d="M92.4369 42.3002C91.8906 42.3002 91.4166 41.9226 91.2946 41.39L89.5036 33.5765C89.1323 31.9564 90.1445 30.342 91.7646 29.9706C93.3847 29.5991 94.999 30.6115 95.3705 32.2316C95.472 32.6741 95.472 33.1339 95.3705 33.5765L93.5793 41.39C93.457 41.9226 92.9832 42.3002 92.4369 42.3002ZM92.4369 32.2385C92.0693 32.2385 91.7712 32.5365 91.7712 32.9042C91.7712 32.9542 91.7767 33.0042 91.7881 33.053L92.4369 35.8838L93.0859 33.0532C93.1681 32.6949 92.9441 32.3376 92.5859 32.2555C92.537 32.2441 92.487 32.2385 92.4369 32.2385Z" fill="#1E2E36" />
			<path d="M84.0078 42.3002C83.4615 42.3002 82.9875 41.9227 82.8656 41.3903L81.0743 33.5767C80.7029 31.9566 81.7152 30.3421 83.3353 29.9708C84.9554 29.5994 86.57 30.6117 86.9412 32.2318C87.0428 32.6744 87.0428 33.1342 86.9412 33.5767L85.15 41.3903C85.0281 41.9229 84.5541 42.3002 84.0078 42.3002ZM84.0078 32.2386C83.6401 32.2386 83.3421 32.5365 83.3421 32.9043C83.3421 32.9544 83.3477 33.0043 83.359 33.0533L84.0078 35.884L84.6566 33.0533C84.7389 32.6948 84.5149 32.3377 84.1566 32.2556C84.1078 32.2441 84.058 32.2386 84.0078 32.2386Z" fill="#1E2E36" />
			<path d="M86.7007 46.0877H81.315C80.7321 46.0877 80.2378 45.6592 80.1551 45.0822C79.9527 43.7295 80.348 42.3556 81.238 41.3171C81.9951 40.4436 83.0046 39.9426 84.0078 39.9426C85.011 39.9426 86.0208 40.4436 86.778 41.3171C87.6679 42.3556 88.063 43.7296 87.8606 45.0822C87.7779 45.6594 87.2836 46.0877 86.7007 46.0877ZM82.5355 43.744H85.4804C85.3914 43.4151 85.2296 43.1104 85.0069 42.8523C84.7089 42.5085 84.3169 42.2864 84.0078 42.2864C83.6986 42.2864 83.3067 42.5085 83.0089 42.8523C82.7865 43.1102 82.6245 43.4151 82.5355 43.744Z" fill="#1E2E36" />
		</g>
		<defs>
			<clipPath id="clip0_628_675">
				<rect width="100" height="100" fill="white" />
			</clipPath>
		</defs>
	</symbol>
</svg>
